<?xml version="1.0" encoding="UTF-8"?><svg id="a" xmlns="http://www.w3.org/2000/svg" viewBox="0 0 1334 700.03"><defs><style>.b{fill:#6b1444;}.c{fill:#ec9783;}.d{fill:#fff;}.e{fill:#a24a7b;}.f{fill:#b85773;}.g{fill:#da6c64;}.h{fill:#8b3563;}</style></defs><path class="d" d="M785,152c-.55,1.13-5.41,11.44,0,21,2.51,4.44,8.67,11.24,16,10,7.4-1.25,10.58-9.83,11-11,4.12-11.63-5.54-22.49-6-23-2.67-.4-6.49-.68-11,0-4.24,.64-7.63,1.91-10,3Z"/><path class="b" d="M955.43,376.65c1.41,4.71-35.58,16.28-43.02,29.28-.87,1.52-6.61,5.6-10.49,9.48,0,0-5.36,5.3-10.19,11.07-11.92,14.25-31.75,59.73-54.3,89.17,0,0-13.59,17.74-28,19-2.52,.22-5,0-5,0-1.74-.15-4.81-.43-7.69-1.78-3.2-1.5-5.87-4.83-10.9-11.71-.68-.93-1.41-1.91-2.18-2.96-2.08-2.84-3.86-5.45-5.31-7.67-.8-1.23-1.51-2.34-2.11-3.3,3.81,1.14,8.31,2.17,13.15,2.54,2.08,.18,4.22,.22,6.4,.08,2.29-.12,4.62-.43,6.96-.99,3.52-.81,7.06-2.16,10.51-4.21,22.18-13.19,20.19-43.13,35.25-72.08,1.5-2.91,3.19-5.8,5.08-8.67,12.19-18.46,29.66-30.41,46.64-37.74,.65-.28,3.27-1.41,6.95-2.76,22.86-8.35,47.14-10.45,48.25-6.75Z"/><path class="b" d="M796.99,508.35c-.37,.47-.77,.97-1.2,1.5-2.03,2.51-4.72,5.69-8.01,9.23-.67,.73-1.32,1.42-1.94,2.08-6.25,6.73-9.75,10.25-14.01,12.19-4.74,2.15-9.81,2.08-14.35,1.18-5.03-.99-9.41-3.01-11.96-4.18-31.73-14.61-40.48-65.56-76.36-106.47-.74-.84-1.48-1.67-2.23-2.48-5.95-6.52-12-12.09-17.91-16.85-18.17-14.66-34.95-21.74-43.34-25.96-3.98-2.01-6.07-3.36-5.54-4.58,1.61-3.68,26.05-3.37,53.17,6.01,.72,.25,1.44,.51,2.17,.78,21.05,7.62,43.38,20.75,57.7,41.71,2.99,4.38,5.43,8.8,7.48,13.22,13.01,28,10.44,55.64,33.92,68.85,3.21,1.81,6.52,3.13,9.85,4.05,4.67,1.31,9.38,1.85,13.92,1.9,3.84,.05,7.57-.26,11.04-.76h0c2.7-.38,5.25-.88,7.59-1.42Z"/><path class="b" d="M855.43,346.15c11.32-4,27.41-8.25,47-9,27.14-1.04,48.86,5.11,62,10,.67,9,1.33,18,2,27-23.26,11.29-42.06,13.29-55,13-10.11-.23-17.71-1.87-56-10v-31Z"/><path class="d" d="M801.43,488.65c-.52,8.33,.43,14.54,1.32,20.21,1.04,6.64,2.95,15.55,6.68,25.79-6.43,1.51-14.56,2.83-24,3-11.25,.2-20.8-1.31-28-3,0-.01,.01-.03,.02-.05,0-.02,.02-.04,.03-.07,.74-1.83,5.13-13.06,6.95-25.9,1.03-7.28,1.23-15.08-.52-21.98-1.84-7.23-3.72-13.99-8.06-20.31-3.06-4.46-6.12-8.92-7.66-17.69-.6-3.41-.79-6.47-.68-9.33,.68-16.82,12.12-26.4,14.9-56.67,2.98-32.32-7.78-45.98,0-58,8.41-12.98,30.72-12.12,38.18,1,6.68,11.75-4.1,23.53-2.24,51,2.13,31.58,18.08,41.22,19.03,61.44,.12,2.36,.02,4.86-.32,7.56-1,7.92-9.76,13.53-13.55,29.15-.36,1.47-1.65,6.95-2.08,13.85Z"/><path class="b" d="M577.43,341.65c11.32-4,27.41-8.25,47-9,27.14-1.04,48.86,5.11,62,10,.67,9,1.33,18,2,27-23.26,11.29-42.06,13.29-55,13-10.11-.23-17.71-1.87-56-10v-31Z"/><path class="f" d="M815.99,99.89c-9.6,8.86-8.88,22.43-8.57,28.36,.87,16.36,10.56,42.93,30.28,44.35,16.26,1.17,31.52-15.34,34.89-32.43,3.24-16.45-4.13-35.41-19.76-43.24-10.49-5.26-26.63-6.46-36.84,2.96Z"/><path class="f" d="M714.5,202.78c5.39-1.51,13.12-.16,17.35,4.91,11.25,13.53-10.25,44.22-4.41,47.95,3.25,2.08,13.49-4.15,18-13,4.5-8.82,.25-14.25,6-23,1.24-1.89,5.87-8.93,13-9,.47,0,6.18,.02,9,4,4.53,6.4-1.67,18.45-4.9,24.72-2.03,3.95-3.44,5.56-4.79,9.89-1.15,3.69-1.18,5.86-2.93,9.76,0,0-1.36,3.03-3.62,6.16-12.68,17.49-29.87,17.11-29.87,17.11-1.55-.03-13.4-.4-21.89-9.64-7.54-8.2-7.67-18.2-7.8-27.02-.04-2.93-.18-38.07,16.87-42.84Z"/><path class="h" d="M853.43,186.65c4.6,.5,7.47,5.4,9,8,10.74,18.28-9.95,46.3-12,49-2.61,3.45-27.81,35.97-51,28-20.79-7.15-25.74-41.95-19-64,3.31-10.82,12.24-27.81,22-27,5.13,.42,10.66,5.79,11,11,.44,6.88-8.42,9.56-14,24-.99,2.55-1.67,4.37-2,7-1.27,10.29,4.86,23.14,11,24,14.38,2.01,27.64-61.9,45-60Z"/><path class="g" d="M700.43,174.65c21.33,8.65,39.17,32.78,34,49-6.42,20.16-44.38,15.56-49.57,35.68-3.54,13.71,13.27,19.89,15.65,45.22,.52,5.54,1.97,28.67-11.93,43.16-17.09,17.82-53.06,18.03-72.26,3.4-39.25-29.91-28.36-133.86,24.63-167.66,6.72-4.29,33.06-19.53,59.48-8.81Z"/><path class="g" d="M875.43,161.65c-18.12,4.17-37.1,21.7-38.34,41.29-2.18,34.4,53.97,47.66,52.8,83.47-.92,28.11-36.22,39.76-31.02,54.13,5.58,15.45,53.84,22.54,82.56,1.11,35.84-26.73,32.44-91.26,9-131-1.57-2.66-35.23-58.16-75-49Z"/><path class="f" d="M944.98,330.96c1.32-12.55-7.4-25.24-16.39-31.44-23.64-16.3-63.26,2.52-83.46,30.95-2.17,3.06-21.79,30.67-13.73,44.51,10.22,17.54,58.09,1.29,84.95-13.99,26.28-14.94,28.26-26.55,28.63-30.02Z"/><path class="h" d="M606.87,332.03c-.07-12.65,10.96-24.12,21.58-29.1,27.91-13.1,69.6,10.81,88.77,41.71,2.06,3.33,20.68,33.34,10.24,46.04-13.23,16.09-64.31-6.35-92.29-25.05-27.37-18.3-28.28-30.1-28.3-33.6Z"/><path class="h" d="M848.51,432.57c-15.06,28.95-13.07,58.89-35.25,72.08-3.45,2.05-6.99,3.4-10.51,4.21-1.18-6.22-1.77-13.03-1.32-20.21,.43-6.9,1.72-12.38,2.08-13.85,3.79-15.62,12.55-21.23,13.55-29.15,.34-2.7,.44-5.2,.32-7.56,11.03-1.4,21.42-3.3,31.13-5.52Z"/><path class="f" d="M764.43,508.63c-3.33-.92-6.64-2.24-9.85-4.05-23.48-13.21-20.91-40.85-33.92-68.85,8.48,1.5,17.44,2.73,26.85,3.59-.11,2.86,.08,5.92,.68,9.33,1.54,8.77,4.6,13.23,7.66,17.69,4.34,6.32,6.22,13.08,8.06,20.31,1.75,6.9,1.55,14.7,.52,21.98Z"/><path class="c" d="M913.43,410.31c-3.49,1.62-7.33,3.34-11.51,5.1-14.13,5.92-32.12,12.3-53.41,17.16-9.71,2.22-20.1,4.12-31.13,5.52-9.26,1.18-18.97,2-29.09,2.36-14.34,.51-27.97,.04-40.78-1.13-9.41-.86-18.37-2.09-26.85-3.59-21.07-3.73-39.18-9.09-53.73-14.33-7.47-2.69-13.99-5.35-19.5-7.75,.53-3.03,1.06-6.07,1.59-9.1,1.36-7.78,2.72-15.55,4.08-23.33l.21-1.2c.19-1.08,.38-2.17,.57-3.25,2.4-13.76,4.8-27.51,7.21-41.27,1.88-10.76,3.76-21.51,5.65-32.27,1.56-8.97,3.13-17.94,4.7-26.91,70.16-.55,140.33-1.11,210.5-1.67,1.77,7.64,3.55,15.27,5.32,22.91,3.09,13.31,6.18,26.62,9.27,39.93,2.33,10.03,4.65,20.07,6.98,30.1,1.23,5.27,2.45,10.54,3.67,15.81,.28,1.2,.56,2.41,.84,3.61,1.46,6.31,2.93,12.61,4.39,18.92,.34,1.46,.68,2.92,1.02,4.38Z"/><path class="e" d="M888.19,181.04c-25.21,3.09-19.92,52.1-51.78,69.06-24.04,12.8-46.33-5.47-69.92,13.71-1.46,1.18-13.47,11.1-11.06,16.84,1.85,4.4,11.86,5.52,19,4,5.8-1.24,7.37-3.71,14.89-5.24,5.24-1.06,9.28-.83,11.11-.76,12.44,.46,38.83-2.24,50.63-5,24.94-5.83,47.84-26.64,55.84-50.39,1.21-3.6,8.91-26.46-2.05-37-4.2-4.04-10.79-5.93-16.67-5.21Z"/><path class="b" d="M679.1,180.37c3.22-.03,13.3-.12,18.79,6.92,3.51,4.5,4.97,11.7,2.4,17.33-3.82,8.38-13.33,5.97-29.49,16.14-9.83,6.18-20.34,15.89-18.56,19.51,.63,1.27,2.61,1.44,3.68,1.56,16.57,1.9,21.19,16.64,35.91,16.74,8.51,.06,12.95-4.82,24.57-4.6,2.28,.04,5.89,.3,8.76,2.88,.49,.44,2.92,2.71,3.39,6.37,.86,6.72-5.78,11.2-6.16,11.45-1.03,.67-2.36,1.33-7.26,2.3-7.68,1.52-13.23,1.7-13.23,1.7-10.3,.34-19.66,.66-31.94-2.16-6.77-1.55-17.08-4.02-28.27-11.38-7.24-4.76-12.74-8.29-15.45-13.81-11.47-23.36,23.22-70.68,52.87-70.94Z"/><path class="c" d="M777.9,107.22c-1.16,6.87,32.94,20.36,66.11,24.46,30.22,3.73,63.62,.16,64.2-6.01,.26-2.8-6.1-7.23-34.31-14.46-1.36-13.84-11.36-25.22-24.51-28.13-14.31-3.17-29.36,4.36-35.68,18.19-28.32,.13-35.32,3.05-35.81,5.96Z"/><path class="g" d="M823.76,105.45c2.96-3.59,4.61-9.69,2.01-13.78-3.72-5.87-14.92-5.6-21.46-.59-4.64,3.54-8.34,10.53-6.1,14.93,3.25,6.35,19,7.38,25.55-.55Z"/><path class="e" d="M833.79,101.91c-2.54-3.93-8.09-6.09-12.8-3.76-5.51,2.72-6.66,9.98-4.25,13.67,3.48,5.33,15.08,4.35,17.98-1.37,1.43-2.81,.51-6.31-.93-8.55Z"/><path class="f" d="M713.89,113.77c-11.97,6.51-17.31,20.13-17.35,30.38-.1,24.81,30.75,49.35,49.91,41.94,13.24-5.12,18.9-24.75,17.16-39.38-1.96-16.52-14.19-33.79-30.79-36.35-9.52-1.47-17.12,2.42-18.93,3.41Z"/><path class="c" d="M676.09,118.25c-1.25-3.86,5.68-11.41,40.61-27.54,6.41,3.14,14.66,8.11,22.38,15.87,3.18,3.2,5.77,6.36,7.86,9.29-1.33,3.46-6.87,16.5-22.47,24.57-12.76,6.6-25.04,6.16-29.58,5.8,.48-5.56,.04-13.08-5.19-18.82-5.55-6.08-12.53-5.82-13.61-9.17Z"/><path class="d" d="M803,201c1.33,7,2.67,14,4,21-6.82,2.86-7.09,4.44-7,5,.3,1.88,6.16,2.84,11,2,4.22-.73,9.25-3.11,9-5-.3-2.27-8.08-2.93-9-3-1.33-7-2.67-14-4-21-.37-1.66-1.99-2.42-3-2-.87,.36-1.46,1.67-1,3Z"/><path class="d" d="M766.89,170.61c-1.06,.68-10.54,7-10.86,17.97-.15,5.1,1.61,14.1,8.52,16.83,6.98,2.76,14.14-2.94,15.1-3.73,9.54-7.82,6.89-22.12,6.76-22.79-2.07-1.72-5.21-3.94-9.42-5.69-3.96-1.64-7.52-2.32-10.11-2.6Z"/><path class="d" d="M756.96,221.86c-2.48,6.68-4.96,13.36-7.44,20.04-7.32-1.08-8.36,.13-8.58,.66-.72,1.76,3.8,5.62,8.38,7.4,3.99,1.55,9.52,2.12,10.29,.37,.92-2.1-5.4-6.68-6.15-7.22,2.48-6.68,4.96-13.36,7.44-20.04,.55-1.61-.45-3.1-1.53-3.26-.93-.14-2.11,.68-2.41,2.05Z"/><path class="b" d="M785,162c3.21-1.43,7.82-3.06,13.56-3.72,4.12-.48,7.74-.33,10.59,0,.7,1.37,2.84,5.96,1.32,11.44-.22,.79-2.49,8.69-9.26,10.17-6.25,1.36-11.8-3.72-14.2-7.89-2.36-4.11-2.19-8.23-2-10Z"/><path class="b" d="M758,186c4.89-.26,9.9-.59,15-1,3.73-.3,7.4-.64,11-1,.18,1.12,1.26,8.61-3.97,14.47-.71,.79-6.05,6.78-12.7,5.29-6.2-1.39-9.04-8.59-9.53-13.16-.2-1.9,0-3.5,.2-4.6Z"/></svg>