<?xml version="1.0" encoding="utf-8"?>
<!-- Generator: Adobe Illustrator 26.1.0, SVG Export Plug-In . SVG Version: 6.00 Build 0)  -->
<svg version="1.1" xmlns="http://www.w3.org/2000/svg" xmlns:xlink="http://www.w3.org/1999/xlink" x="0px" y="0px"
	 viewBox="0 0 612 792" style="enable-background:new 0 0 612 792;" xml:space="preserve">

</style>
<g id="Layer_11" class="st0">
	<g id="Layer_12" class="st1">
		<path class="st2" d="M566.1,455.18"/>
	</g>
	<rect x="126.53" y="109.41" class="st3" width="65.69" height="81.1"/>
	<rect x="257.48" y="109.41" class="st4" width="59.76" height="81.1"/>
	<rect x="376.93" y="109.41" class="st5" width="65.69" height="81.1"/>
	<rect x="60.83" y="109.41" class="st6" width="65.69" height="81.1"/>
	<rect x="191.7" y="109.41" class="st7" width="65.69" height="81.1"/>
	<rect x="317.17" y="109.41" class="st8" width="59.76" height="81.1"/>
	<rect x="69.27" y="194.23" class="st9" width="47.11" height="17.66"/>
	<text transform="matrix(1 0 0 1 69.2666 202.7524)" class="st10 st11 st12">#F3E2D9</text>
	<rect x="134.44" y="194.6" class="st9" width="47.5" height="11.47"/>
	<text transform="matrix(1 0 0 1 134.4395 203.1246)" class="st10 st11 st12">#6D1344</text>
	<rect x="200" y="195.1" class="st9" width="47.5" height="11.47"/>
	<text transform="matrix(1 0 0 1 200.0004 203.6241)" class="st10 st11 st12">#BD4A84</text>
	<rect x="261.35" y="195.1" class="st9" width="47.5" height="11.47"/>
	<text transform="matrix(1 0 0 1 261.3529 203.6241)" class="st10 st11 st12">#DB6B63</text>
	<rect x="322.71" y="197.02" class="st9" width="47.5" height="11.47"/>
	<text transform="matrix(1 0 0 1 322.7054 205.536)" class="st10 st11 st12">#ED9783</text>
	<rect x="388.15" y="197.02" class="st9" width="47.5" height="11.47"/>
	<text transform="matrix(1 0 0 1 388.1485 205.536)" class="st10 st11 st12">#FBE7B9</text>
</g>
<g id="Layer_8" class="st0">
	<path class="st13" d="M557.91,580.41"/>
	<path class="st14" d="M299.61,670.46"/>
	<g class="st1">
		<path class="st15" d="M330.16,374.26"/>
		<path class="st15" d="M465.25,381.39c0.02,0.02,0.03,0.04,0.04,0.06c0.06,0.2-0.23,0.51-0.88,0.91
			c-7.89,4.91-67.33,24.37-140.14,45.73c-78.79,23.12-143.41,39.72-144.32,37.08c-0.91-2.63,62.23-23.51,141.02-46.62
			c4.51-1.33,8.99-2.63,13.41-3.91c2.21-0.63,4.4-1.27,6.58-1.9c6.81-1.96,13.48-3.87,19.96-5.71c0.78-0.22,1.54-0.43,2.32-0.65
			c2.05-0.58,4.09-1.15,6.11-1.72c1-0.28,2.02-0.56,3.01-0.84c0.23-0.06,0.45-0.12,0.67-0.19c1.77-0.49,3.52-0.98,5.27-1.46
			c2.93-0.81,5.81-1.61,8.64-2.39c1.88-0.52,3.75-1.02,5.59-1.53c0.73-0.2,1.46-0.39,2.17-0.59c2.91-0.79,5.76-1.56,8.53-2.3
			c0.03-0.01,0.06-0.02,0.09-0.03c1.7-0.46,3.37-0.9,5.02-1.34c2.5-0.67,4.95-1.31,7.34-1.93c1.21-0.31,2.4-0.63,3.58-0.93
			c2.14-0.56,4.22-1.09,6.24-1.61c0.73-0.19,1.45-0.37,2.17-0.55c2.29-0.58,4.5-1.13,6.62-1.66c0.68-0.16,1.34-0.33,1.98-0.49
			c3.82-0.93,7.3-1.76,10.44-2.48c0.28-0.07,0.57-0.13,0.84-0.19c0.28-0.07,0.55-0.13,0.82-0.19c0.54-0.11,1.07-0.24,1.59-0.35
			c2.07-0.46,3.95-0.86,5.62-1.18c0.42-0.08,0.82-0.16,1.22-0.24c0.59-0.11,1.16-0.22,1.69-0.31c0.35-0.06,0.7-0.12,1.02-0.18
			c0.34-0.05,0.67-0.11,0.99-0.16c0.27-0.04,0.54-0.08,0.79-0.12c0.27-0.04,0.5-0.07,0.73-0.09c0.11-0.01,0.21-0.03,0.3-0.04
			c0.57-0.06,1.05-0.1,1.46-0.12c0.06-0.01,0.11-0.01,0.16-0.01c0.09,0,0.16-0.01,0.23,0c0.23,0,0.42,0.01,0.58,0.03
			c0.04,0.01,0.1,0.01,0.13,0.02c0.05,0.01,0.09,0.02,0.13,0.03c0.07,0.02,0.13,0.05,0.16,0.07
			C465.21,381.36,465.23,381.37,465.25,381.39z"/>
		<path class="st15" d="M479.62,332.74l-0.81,2.75c-15.95,13.81-21.88,32.1-15.03,45.69c-0.41,0.03-0.89,0.06-1.45,0.12
			c-0.1,0.01-0.2,0.03-0.31,0.04c-0.23,0.03-0.47,0.06-0.73,0.1c-0.25,0.04-0.51,0.08-0.79,0.12c-0.32,0.05-0.64,0.11-0.98,0.16
			c-0.33,0.06-0.66,0.12-1.03,0.18c-0.52,0.09-1.09,0.2-1.68,0.31c-0.4,0.08-0.8,0.15-1.23,0.24c-1.68,0.33-3.55,0.72-5.62,1.18
			c-0.52,0.12-1.06,0.24-1.59,0.36c-0.27,0.06-0.54,0.12-0.83,0.19c-0.27,0.06-0.55,0.12-0.84,0.19c-3.13,0.71-6.62,1.54-10.43,2.47
			c-0.65,0.16-1.31,0.32-1.99,0.48c-2.12,0.54-4.33,1.08-6.62,1.67c-0.72,0.18-1.44,0.36-2.17,0.55c-2.02,0.52-4.1,1.05-6.24,1.6
			c-1.18,0.31-2.37,0.62-3.58,0.93c-2.39,0.63-4.83,1.27-7.34,1.94c-1.66,0.44-3.32,0.88-5.02,1.34l-0.1,0.02
			c-2.77,0.74-5.61,1.51-8.53,2.3c-0.72,0.2-1.44,0.4-2.17,0.59c-1.83,0.5-3.71,1.01-5.59,1.53c-2.83,0.78-5.71,1.57-8.64,2.39
			c-1.74,0.47-3.49,0.96-5.26,1.46c-0.22,0.07-0.44,0.13-0.68,0.19c-0.98,0.28-2,0.56-3,0.84c-2.02,0.56-4.06,1.14-6.11,1.72
			c-0.78,0.21-1.53,0.43-2.31,0.64c-6.49,1.84-13.15,3.74-19.97,5.71c-2.18,0.62-4.37,1.26-6.58,1.9c-4.42,1.27-8.9,2.59-13.4,3.91
			c-78.67,23.08-141.74,43.93-141.02,46.62l-1.01-0.84c-1.92-14.17-16.07-26.01-35.79-30.22l-2.52-2.14
			c3.18,1.05,51.06-11.34,116.39-29.89c15.22-4.32,31.39-8.98,48.16-13.88c2.17-0.64,4.36-1.28,6.55-1.92
			c2.29-0.67,4.57-1.34,6.83-2.01c5.56-1.63,11.04-3.25,16.43-4.86C413.1,356.21,473.79,336.64,479.62,332.74z"/>
		<path class="st15" d="M474.67,327.4c0.02,0.02,0.04,0.05,0.04,0.07c0.07,0.24-0.26,0.59-1.02,1.05
			c-9.12,5.67-77.97,28-162.3,52.46c-91.27,26.48-166.13,45.46-167.2,42.38c-1.07-3.07,72.06-27.02,163.32-53.5
			c5.23-1.52,10.42-3.02,15.53-4.48c2.56-0.73,5.1-1.46,7.63-2.17c7.89-2.25,15.61-4.43,23.12-6.53c0.9-0.25,1.78-0.49,2.68-0.74
			c2.37-0.66,4.74-1.32,7.08-1.97c1.16-0.32,2.33-0.64,3.48-0.96c0.27-0.07,0.53-0.14,0.77-0.22c2.05-0.56,4.08-1.12,6.1-1.67
			c3.39-0.93,6.73-1.85,10.01-2.73c2.18-0.59,4.34-1.17,6.47-1.75c0.84-0.22,1.69-0.45,2.51-0.67c3.37-0.9,6.67-1.78,9.88-2.63
			c0.04-0.01,0.07-0.02,0.11-0.03c1.97-0.52,3.91-1.03,5.82-1.53c2.9-0.77,5.73-1.5,8.5-2.21c1.4-0.36,2.78-0.71,4.14-1.06
			c2.48-0.64,4.89-1.24,7.23-1.84c0.85-0.22,1.68-0.42,2.51-0.62c2.66-0.66,5.22-1.3,7.67-1.9c0.78-0.19,1.55-0.38,2.3-0.56
			c4.43-1.07,8.46-2.01,12.09-2.83c0.32-0.08,0.65-0.15,0.97-0.22c0.32-0.08,0.64-0.15,0.95-0.22c0.63-0.13,1.24-0.27,1.85-0.4
			c2.4-0.52,4.57-0.97,6.52-1.35c0.49-0.09,0.95-0.18,1.42-0.27c0.68-0.13,1.34-0.25,1.96-0.36c0.41-0.07,0.81-0.14,1.19-0.2
			c0.4-0.06,0.78-0.12,1.15-0.18c0.32-0.05,0.63-0.09,0.92-0.13c0.31-0.04,0.58-0.07,0.85-0.11c0.12-0.01,0.24-0.04,0.35-0.04
			c0.66-0.07,1.22-0.11,1.69-0.13c0.07-0.01,0.13-0.01,0.19-0.01c0.1,0,0.19-0.01,0.26,0c0.26,0,0.49,0.02,0.67,0.04
			c0.05,0.01,0.12,0.01,0.16,0.03c0.06,0.01,0.11,0.02,0.15,0.04c0.08,0.02,0.15,0.05,0.19,0.08
			C474.62,327.36,474.65,327.38,474.67,327.4z"/>
		<path class="st15" d="M410.93,344.89c-13.36,3.98-26.72,7.96-40.08,11.94c0.32-3.16,1.09-7.7,3.07-12.73
			c1.55-3.94,5.67-12.8,19.68-23.41c11.38-8.62,30.53-19.35,34.23-15.16c0.74,0.83,1.12,2.55-7.2,20.03
			C416.72,333.75,413.3,340.4,410.93,344.89z"/>
		<path class="st15" d="M425.36,341.18c4.3-9.41,8.59-18.81,12.89-28.22c1.59-1.21,7.33-5.27,15.03-4.46
			c2.22,0.23,9.35,0.99,11.93,6.26c2.36,4.82,0.18,11.91-5.83,16.68C448.04,334.69,436.7,337.93,425.36,341.18z"/>
		<path class="st15" d="M386.46,281.02c-0.17-3.48-0.43-8.85,2.98-11.72c4.92-4.14,15.05-1.03,20.39,4.82
			c5.29,5.8,8.16,16.77,2.29,22.7c-4.24,4.29-11.53,4.4-16.52,1.99C387.14,294.74,386.61,284.03,386.46,281.02z"/>
		<path class="st15" d="M358.92,361.05c-31.8,8.77-63.6,17.55-95.39,26.32c-1.11-2.02-7.59-14.3-1.29-26.05
			c4.43-8.26,12.84-11.86,17.2-13.74C309.87,334.53,352.48,357.49,358.92,361.05z"/>
		<path class="st15" d="M418.52,240.98c-9.41-2.79-9.83,7.44-9.85,8.53c-0.16,7.16,5.44,17.56,13.92,24.78
			c5.12,4.37,13.63,9.56,18.31,7.73c5.27-2.06,4.39-12.51-4.46-24.4C432.36,249.68,424.78,242.84,418.52,240.98z"/>
		<g>
			<rect x="98.85" y="236.39" class="st16" width="292.28" height="83.97"/>
			<text transform="matrix(1 0 0 1 98.8514 316.4549)" class="st15 st17 st18">manj</text>
		</g>
		<path class="st15" d="M328.42,247.9c-3.23-4.05-0.89-10.19,2.4-13.75c1.43-1.54,4.75-5.13,9.24-4.45c2.64,0.4,5.37,2.24,6.02,4.51
			c0.44,1.55-0.28,2.63-4.9,8.37c-5.4,6.7-6.67,8.02-8.58,7.91C330.39,250.36,328.83,248.41,328.42,247.9z"/>
		<path class="st15" d="M363.65,228.92c-5.29,1.98-7.27,8.38-7.17,12.84c0.01,0.5,0.28,7.61,6.32,11.72
			c3.39,2.31,9.49,4.29,13.94,1.19c4.18-2.91,4.37-8.52,4.42-10.11c0.05-1.41-0.04-4.91-2.19-8.39
			C376.25,231.77,369.77,226.62,363.65,228.92z"/>
		<path class="st19" d="M466.47,383.92c0.02,0.02,0.03,0.04,0.04,0.06c0.06,0.2-0.23,0.51-0.88,0.91
			c-7.89,4.91-67.33,24.37-140.14,45.73c-78.79,23.12-143.41,39.72-144.32,37.08c-0.91-2.63,62.23-23.51,141.02-46.62
			c4.51-1.33,8.99-2.63,13.41-3.91c2.21-0.64,4.4-1.27,6.58-1.9c6.81-1.96,13.48-3.87,19.96-5.71c0.78-0.22,1.54-0.43,2.32-0.65
			c2.05-0.58,4.09-1.15,6.11-1.72c1-0.28,2.02-0.56,3.01-0.84c0.23-0.06,0.45-0.12,0.67-0.19c1.77-0.49,3.52-0.98,5.27-1.46
			c2.93-0.81,5.81-1.61,8.64-2.39c1.88-0.52,3.75-1.02,5.59-1.53c0.73-0.2,1.46-0.39,2.17-0.59c2.91-0.79,5.76-1.56,8.53-2.3
			c0.03-0.01,0.06-0.02,0.09-0.03c1.7-0.46,3.37-0.9,5.02-1.34c2.5-0.67,4.95-1.31,7.34-1.93c1.21-0.31,2.4-0.63,3.58-0.93
			c2.14-0.56,4.22-1.09,6.24-1.61c0.73-0.19,1.45-0.37,2.17-0.55c2.29-0.58,4.5-1.13,6.62-1.66c0.68-0.16,1.34-0.33,1.98-0.49
			c3.82-0.93,7.3-1.76,10.44-2.48c0.28-0.07,0.57-0.13,0.84-0.19c0.28-0.07,0.55-0.13,0.82-0.19c0.54-0.11,1.07-0.24,1.59-0.35
			c2.07-0.46,3.95-0.86,5.62-1.18c0.42-0.08,0.82-0.16,1.22-0.24c0.59-0.11,1.16-0.22,1.69-0.31c0.35-0.06,0.7-0.12,1.02-0.18
			c0.34-0.05,0.67-0.11,0.99-0.16c0.27-0.04,0.54-0.08,0.79-0.12c0.27-0.04,0.5-0.07,0.73-0.09c0.11-0.01,0.21-0.03,0.3-0.04
			c0.57-0.06,1.05-0.1,1.46-0.12c0.06-0.01,0.11-0.01,0.16-0.01c0.09,0,0.16-0.01,0.23,0c0.23,0,0.42,0.01,0.58,0.03
			c0.04,0.01,0.1,0.01,0.13,0.02c0.05,0.01,0.09,0.02,0.13,0.03c0.07,0.02,0.13,0.05,0.16,0.07
			C466.43,383.88,466.45,383.89,466.47,383.92z"/>
		<path class="st19" d="M481.85,335.26l-0.81,2.75c-15.95,13.81-21.88,32.1-15.03,45.69c-0.41,0.03-0.89,0.06-1.45,0.12
			c-0.1,0.01-0.2,0.03-0.31,0.04c-0.23,0.03-0.47,0.06-0.73,0.1c-0.25,0.04-0.51,0.08-0.79,0.12c-0.32,0.05-0.64,0.11-0.98,0.16
			c-0.33,0.06-0.66,0.12-1.03,0.18c-0.52,0.09-1.09,0.2-1.68,0.31c-0.4,0.08-0.8,0.15-1.23,0.24c-1.68,0.33-3.55,0.72-5.62,1.18
			c-0.52,0.12-1.06,0.24-1.59,0.36c-0.27,0.07-0.54,0.12-0.83,0.19c-0.27,0.06-0.55,0.12-0.84,0.19c-3.13,0.71-6.62,1.54-10.43,2.47
			c-0.65,0.16-1.31,0.32-1.99,0.48c-2.12,0.54-4.33,1.08-6.62,1.67c-0.72,0.18-1.44,0.36-2.17,0.55c-2.02,0.52-4.1,1.05-6.24,1.6
			c-1.18,0.31-2.37,0.62-3.58,0.93c-2.39,0.63-4.83,1.27-7.34,1.94c-1.66,0.44-3.32,0.88-5.02,1.34l-0.1,0.02
			c-2.77,0.74-5.61,1.51-8.53,2.3c-0.72,0.2-1.44,0.4-2.17,0.59c-1.83,0.5-3.71,1.01-5.59,1.53c-2.83,0.78-5.71,1.57-8.64,2.39
			c-1.74,0.47-3.49,0.96-5.26,1.46c-0.22,0.07-0.44,0.13-0.68,0.19c-0.98,0.28-2,0.56-3,0.84c-2.02,0.56-4.06,1.14-6.11,1.72
			c-0.78,0.21-1.53,0.43-2.31,0.64c-6.49,1.84-13.15,3.74-19.97,5.71c-2.18,0.62-4.37,1.26-6.58,1.9c-4.42,1.27-8.9,2.59-13.4,3.91
			c-78.67,23.08-141.74,43.93-141.02,46.62l-1.01-0.84c-1.92-14.17-16.07-26.01-35.79-30.22l-2.52-2.14
			c3.18,1.05,51.06-11.34,116.39-29.89c15.22-4.32,31.39-8.98,48.16-13.88c2.17-0.64,4.36-1.28,6.55-1.92
			c2.29-0.67,4.57-1.34,6.83-2.01c5.56-1.63,11.04-3.25,16.43-4.86C415.32,358.73,476.01,339.16,481.85,335.26z"/>
		<path class="st20" d="M475.89,326.91c0.02,0.02,0.04,0.05,0.04,0.07c0.07,0.24-0.26,0.59-1.02,1.05
			c-9.12,5.67-77.97,28-162.3,52.46c-91.27,26.48-166.13,45.46-167.2,42.38c-1.07-3.07,72.06-27.02,163.32-53.5
			c5.23-1.52,10.42-3.02,15.53-4.48c2.56-0.73,5.1-1.46,7.63-2.17c7.89-2.25,15.61-4.43,23.12-6.53c0.9-0.25,1.78-0.49,2.68-0.74
			c2.37-0.66,4.74-1.32,7.08-1.97c1.16-0.32,2.33-0.64,3.48-0.96c0.27-0.07,0.53-0.14,0.77-0.22c2.05-0.56,4.08-1.12,6.1-1.67
			c3.39-0.93,6.73-1.85,10.01-2.73c2.18-0.59,4.34-1.17,6.47-1.75c0.84-0.22,1.69-0.45,2.51-0.67c3.37-0.9,6.67-1.78,9.88-2.63
			c0.04-0.01,0.07-0.02,0.11-0.03c1.97-0.52,3.91-1.03,5.82-1.53c2.9-0.77,5.73-1.5,8.5-2.21c1.4-0.36,2.78-0.71,4.14-1.06
			c2.48-0.64,4.89-1.24,7.23-1.84c0.85-0.22,1.68-0.42,2.51-0.62c2.66-0.66,5.22-1.3,7.67-1.9c0.78-0.19,1.55-0.38,2.3-0.56
			c4.43-1.07,8.46-2.01,12.09-2.83c0.32-0.08,0.65-0.15,0.97-0.22c0.32-0.08,0.64-0.15,0.95-0.22c0.63-0.13,1.24-0.27,1.85-0.4
			c2.4-0.52,4.57-0.97,6.52-1.35c0.49-0.09,0.95-0.18,1.42-0.27c0.68-0.13,1.34-0.25,1.96-0.36c0.41-0.07,0.81-0.14,1.19-0.2
			c0.4-0.06,0.78-0.12,1.15-0.18c0.32-0.05,0.63-0.09,0.92-0.13c0.31-0.04,0.58-0.07,0.85-0.11c0.12-0.01,0.24-0.04,0.35-0.04
			c0.66-0.07,1.22-0.11,1.69-0.13c0.07-0.01,0.13-0.01,0.19-0.01c0.1,0,0.19-0.01,0.26,0c0.26,0,0.49,0.02,0.67,0.04
			c0.05,0.01,0.12,0.01,0.16,0.03c0.06,0.01,0.11,0.02,0.15,0.04c0.08,0.02,0.15,0.05,0.19,0.08
			C475.84,326.86,475.87,326.88,475.89,326.91z"/>
		<path class="st21" d="M412.14,344.4c-13.36,3.98-26.72,7.96-40.08,11.94c0.32-3.16,1.09-7.7,3.07-12.73
			c1.55-3.94,5.67-12.8,19.68-23.41c11.38-8.62,30.53-19.35,34.23-15.16c0.74,0.83,1.12,2.55-7.2,20.03
			C417.94,333.26,414.52,339.9,412.14,344.4z"/>
		<path class="st21" d="M426.58,340.68c4.3-9.41,8.59-18.81,12.89-28.22c1.59-1.21,7.33-5.27,15.03-4.46
			c2.22,0.23,9.35,0.99,11.93,6.26c2.36,4.82,0.18,11.91-5.83,16.68C449.25,334.19,437.92,337.44,426.58,340.68z"/>
		<path class="st21" d="M387.68,280.53c-0.17-3.48-0.43-8.85,2.98-11.72c4.92-4.14,15.05-1.03,20.39,4.82
			c5.29,5.8,8.16,16.77,2.29,22.7c-4.24,4.29-11.53,4.4-16.52,1.99C388.35,294.24,387.83,283.54,387.68,280.53z"/>
		<path class="st21" d="M360.14,360.56c-31.8,8.77-63.6,17.55-95.39,26.32c-1.11-2.02-7.59-14.3-1.29-26.05
			c4.43-8.26,12.84-11.86,17.2-13.74C311.09,334.03,353.7,357,360.14,360.56z"/>
		<path class="st21" d="M419.74,240.49c-9.41-2.79-9.83,7.44-9.85,8.53c-0.16,7.16,5.44,17.56,13.92,24.78
			c5.12,4.37,13.63,9.56,18.31,7.73c5.27-2.06,4.39-12.51-4.46-24.4C433.57,249.19,426,242.35,419.74,240.49z"/>
		<rect x="98.06" y="235.89" class="st16" width="292.28" height="83.97"/>
		<text transform="matrix(1 0 0 1 98.0565 315.9608)" class="st20 st17 st18">manj</text>
		
			<ellipse transform="matrix(0.0728 -0.9973 0.9973 0.0728 73.9876 567.6153)" class="st22" cx="342.26" cy="244.02" rx="11.85" ry="14.08"/>
		<path class="st21" d="M330.25,246.98c-3.23-4.05-0.89-10.19,2.4-13.75c1.43-1.54,4.75-5.13,9.24-4.45
			c2.64,0.4,5.37,2.24,6.02,4.51c0.44,1.55-0.28,2.63-4.9,8.37c-5.4,6.7-6.67,8.02-8.58,7.91
			C332.21,249.45,330.66,247.5,330.25,246.98z"/>
		<path class="st21" d="M360.17,230.59c-4.28,3.69-3.93,10.37-2.3,14.53c0.18,0.46,2.89,7.04,9.97,8.82
			c3.98,1,10.38,0.75,13.49-3.69c2.92-4.17,1.16-9.51,0.66-11.01c-0.44-1.34-1.73-4.59-4.95-7.12
			C372.99,228.92,365.13,226.32,360.17,230.59z"/>
	</g>
</g>
<g id="Layer_15" class="st0">
	<path class="st23" d="M469.41,708.51"/>
	<path class="st24" d="M468.79,683.74v0.54c-10.47-3.08-28.47-7.13-50.22-5.05c-47.9,4.59-61.42,33.92-122.77,52.61
		c-25.65,7.81-54.88,16.28-78.86,2.09c-17.53-10.37-27.45-29.99-29.75-39.09c-1.52-6.01-0.44-9.99-0.11-11.1
		c2.09-6.93,7.92-10.68,10.23-12h261.24C464.19,671.74,468.79,677.14,468.79,683.74z"/>
	<path class="st25" d="M468.79,684.28v63.67c0,6.6-4.6,12-10.23,12H197.32c-2.81,0-5.37-1.35-7.23-3.53
		c-2.61-3.07-2.92-7.19-3.01-8.47c-0.38-5.66-0.75-25.29-0.52-51.93c8.02,8.3,22.95,21.46,45.27,29.22
		c27.74,9.64,51.66,5.64,63.12,3.58c48.28-8.68,56.08-34.94,99.75-46.02C410.93,678.68,435.57,675.78,468.79,684.28z"/>
	<rect x="249.68" y="690.23" class="st9" width="143.92" height="62.46"/>
	<text transform="matrix(1 0 0 1 249.6819 733.3787)" class="st26 st17 st27">login</text>
	
		<ellipse transform="matrix(0.901 -0.4339 0.4339 0.901 -260.8491 261.6063)" class="st28" cx="442.68" cy="702.25" rx="20.37" ry="18.86"/>
	
		<ellipse transform="matrix(0.5 -0.866 0.866 0.5 -422.8773 726.3065)" class="st29" cx="417.56" cy="729.38" rx="22.5" ry="24.29"/>
	<path class="st30" d="M413.75,721c-2.77,5.9-3.05,7.78-2.52,8.13c0.58,0.38,2.39-0.96,3.18-2.62
		C415.25,724.76,414.99,722.63,413.75,721z"/>
	<path class="st30" d="M418.51,725.98c1.32,0.91,3.38,1.1,3.82,0.4c0.43-0.69-0.78-2.17-2.09-3.78c-1.32-1.62-2.61-2.8-3.55-3.58
		C416.08,721.99,416.71,724.74,418.51,725.98z"/>
	<path class="st30" d="M412.92,719.41c-5.06,2.36-6.58,2.35-6.97,1.82c-0.49-0.66,0.51-2.62,2.12-3.35
		C409.71,717.14,411.79,717.75,412.92,719.41z"/>
	<path class="st30" d="M414.24,716.96c-1.83-0.51-3.12-1.27-3.05-1.86c0.09-0.81,2.85-1.67,3.58-0.66
		C415.17,714.98,414.93,716.02,414.24,716.96z"/>
	<path class="st30" d="M420.89,715.53c0.32,0.5,0.17,1.22-0.15,1.6c-0.61,0.73-2.23,0.66-3.98-0.33c0.12-0.22,1.05-1.78,2.58-1.85
		C419.57,714.95,420.5,714.91,420.89,715.53z"/>
	<path class="st30" d="M443.36,696.5c-4.62,1.37-5.88,2.15-5.81,2.61c0.08,0.54,2.07,1.04,3.27,0.31c0.15-0.09,0.32-0.22,1.52-1.67
		C442.77,697.24,443.12,696.81,443.36,696.5z"/>
	<path class="st30" d="M445.45,700.77c0.95,0.62,2.66,0.82,3.16,0.39c0.49-0.43-0.26-1.41-1.08-2.48c-0.82-1.08-1.7-1.88-2.35-2.41
		C444.12,698.15,444.15,699.92,445.45,700.77z"/>
	<path class="st30" d="M443.15,695.09c-4.87-0.49-6.05-1.01-6.14-1.42c-0.11-0.52,1.45-1.21,3-1.04
		C441.58,692.8,442.95,693.83,443.15,695.09z"/>
	<path class="st30" d="M444.65,694.05c0.15-1.19,0.91-2.14,1.93-2.45c0.74-0.22,1.75-0.15,1.84,0.18
		C448.49,692.06,447.93,692.64,444.65,694.05z"/>
	<path class="st30" d="M449.85,695.95c0.04,0.37-0.36,0.7-0.76,0.79c-0.76,0.17-1.99-0.41-2.95-1.53c0.18-0.07,1.53-0.58,2.74-0.09
		C449.06,695.19,449.79,695.48,449.85,695.95z"/>
	<path class="st31" d="M457.28,760.09H198.67c-6.6,0-12-5.4-12-12c-0.97-32.54-0.84-56.66,0-64.53c0.23-2.18,0.8-5.75,3.52-8.47
		c2.66-2.66,6.2-3.34,8.48-3.53h258.61c6.6,0,12,5.4,12,12v64.53C469.28,754.69,463.88,760.09,457.28,760.09z"/>
	<path class="st32" d="M238.15,705.37c-3.53,4.95-12.01,4.94-18.96-0.01c-6.96-4.95-9.73-12.98-6.2-17.93
		c0.49-0.7,1.1-1.29,1.77-1.79c3.18,3.07,6.36,6.15,9.53,9.22c-0.41-3.66-0.82-7.34-1.23-11c2.92,0.36,6.03,1.56,8.89,3.59
		C238.9,692.41,241.67,700.42,238.15,705.37z"/>
	
		<ellipse transform="matrix(0.9512 -0.3085 0.3085 0.9512 -213.4322 100.2512)" class="st32" cx="210.33" cy="725.1" rx="15.45" ry="10.99"/>
	<path class="st33" d="M233.68,745.41c-5.51,5.16-12.74,6.62-17.19,3.82c3-4.4,5.99-8.8,8.99-13.2c-4.28,2.08-8.56,4.14-12.84,6.22
		c-0.2-4.17,1.94-9.08,6.04-12.92c6.23-5.82,14.65-6.94,18.79-2.51C241.61,731.27,239.91,739.59,233.68,745.41z"/>
</g>
<g id="Layer_16">
	<path class="st34" d="M464.79,588.38"/>
	<path class="st21" d="M399.89,553.45c-1.87,5.22-4.74,10.99-9.19,16.52c-8.49,10.54-18.96,15.52-28.46,19.16
		c-37.99,14.52-58.25,6.62-84.03,15.05c-13.76,4.5-31.15,14.32-48.29,37.48h-56.27c-6.6,0-12-5.4-12-12v-64.21
		c0-1.31,0.21-2.58,0.61-3.77c0.75-2.23,2.13-4.18,3.94-5.62c2.05-1.63,4.64-2.61,7.45-2.61H399.89z"/>
	<path class="st35" d="M492.06,565.45v64.21c0,6.6-5.4,12-12,12H229.92c17.14-23.16,34.53-32.98,48.29-37.48
		c25.78-8.43,46.04-0.53,84.03-15.05c9.5-3.64,19.97-8.62,28.46-19.16c4.45-5.53,7.32-11.3,9.19-16.52h80.17
		C486.66,553.45,492.06,558.85,492.06,565.45z"/>
	<path class="st36" d="M187.03,601.77c-8.59,1.09-16.83-1.23-23.35-5.9v-28.76c0-1.25,0.2-2.47,0.59-3.6
		c0.72-2.13,2.05-3.99,3.79-5.37c1.97-1.56,4.46-2.49,7.16-2.49h37.52c1.37,2.95,2.32,6.16,2.76,9.57
		C217.77,583.13,205.03,599.5,187.03,601.77z"/>
	<path class="st37" d="M188.54,572.85c2.37,6.49,4.75,12.98,7.12,19.47c1.9-0.7,5.59-2.37,8.73-6.08
		c4.67-5.53,4.87-11.79,4.86-13.62C202.34,572.69,195.44,572.77,188.54,572.85z"/>
	<path class="st37" d="M208.66,563.37c-6.55,0.69-13.11,1.39-19.66,2.08c0.49-3.69,0.99-7.37,1.48-11.06h15.62
		c0.56,1.31,1.13,2.86,1.62,4.63C208.17,560.61,208.47,562.07,208.66,563.37z"/>
	<path class="st37" d="M181.11,575.93c-5.11,4.76-10.23,9.51-15.34,14.27c1.6,1.41,4.92,3.96,9.89,5.25
		c5.23,1.35,9.58,0.6,11.68,0.1C185.27,589.01,183.19,582.47,181.11,575.93z"/>
	<path class="st37" d="M183.34,554.16c-0.62,3.42-1.24,6.84-1.86,10.26c-4.3-2.41-8.6-4.81-12.9-7.22c1.97-1.9,4.46-3.04,7.16-3.04
		H183.34z"/>
	<path class="st37" d="M176.16,569.62c-4.79,4.19-9.59,8.38-14.38,12.56v-15.06c0-1.25,0.23-2.47,0.68-3.6
		C167.02,565.55,171.59,567.58,176.16,569.62z"/>
	<path class="st38" d="M184.91,561.54"/>
	<path class="st39" d="M180.86,579.3c-3.51,1.35-5.75,3.62-5.58,5.68c0.01,0.12,0.17,1.72,1.39,2.37c1.05,0.57,2.33,0.13,2.94-0.25
		C181.37,586.03,181.89,582.89,180.86,579.3z"/>
	<path class="st39" d="M191.31,574.49c0.58,2.81,2.04,4.79,3.65,4.94c0.1,0.01,1.35,0.11,2.02-0.72c0.58-0.71,0.4-1.72,0.2-2.23
		C196.58,575.02,194.22,574.21,191.31,574.49z"/>
	<path class="st39" d="M190.92,563.44c3.73,0.53,6.8-0.36,7.66-2.23c0.05-0.11,0.7-1.58-0.04-2.74c-0.64-1.01-1.97-1.24-2.68-1.22
		C193.79,557.33,191.79,559.81,190.92,563.44z"/>
	<path class="st39" d="M180.63,563.06c0.63-2.38,0.21-4.56-1.05-5.41c-0.08-0.05-1.06-0.71-1.94-0.4c-0.75,0.27-1.01,1.11-1.04,1.59
		C176.52,560.21,178.14,561.92,180.63,563.06z"/>
	<path class="st39" d="M174.18,569.77c-2.67-1.44-5.29-1.6-6.54-0.4c-0.08,0.07-1.03,1.02-0.83,2.12c0.17,0.95,1.1,1.5,1.66,1.68
		C170.05,573.67,172.36,572.31,174.18,569.77z"/>
	<path class="st20" d="M465.41,587.81c9.65-1.2,18.89,1.47,26.18,6.8l-0.12,32.72c-0.01,1.42-0.24,2.8-0.67,4.1
		c-0.82,2.42-2.31,4.54-4.27,6.1c-2.22,1.76-5.01,2.82-8.04,2.81l-42.11-0.15c-1.53-3.37-2.58-7.02-3.05-10.9
		C430.82,608.9,445.19,590.33,465.41,587.81z"/>
	<path class="st38" d="M463.77,620.94c-2.65-7.44-5.3-14.89-7.95-22.33c-2.14,0.8-6.32,2.69-9.88,6.93
		c-5.3,6.32-5.55,13.49-5.55,15.59C448.18,621.06,455.97,621,463.77,620.94z"/>
	<path class="st38" d="M441,631.42c7.4-0.67,14.81-1.34,22.21-2.01c-0.57,3.7-1.14,7.4-1.72,11.1l-17.64-0.06
		c-0.63-1.32-1.27-2.88-1.82-4.66C441.55,634.2,441.22,632.73,441,631.42z"/>
	<path class="st38" d="M472.17,617.44c5.79-5.43,11.59-10.85,17.38-16.28c-1.8-1.62-5.54-4.56-11.15-6.05
		c-5.9-1.57-10.82-0.73-13.19-0.16C467.53,602.44,469.85,609.94,472.17,617.44z"/>
	<path class="st38" d="M470.15,641.43c0.71-3.47,1.43-6.93,2.14-10.4c4.85,2.46,9.7,4.92,14.54,7.38c-2.23,1.92-5.05,3.06-8.09,3.05
		L470.15,641.43z"/>
	<path class="st38" d="M477.74,624.7c4.99-4.78,9.97-9.56,14.96-14.34l-0.06,17.25c-0.01,1.43-0.25,2.82-0.72,4.12
		C487.19,629.39,482.47,627.04,477.74,624.7z"/>
	<path class="st20" d="M472.46,613.58c3.97-1.53,6.51-4.13,6.32-6.48c-0.01-0.14-0.18-1.97-1.56-2.72
		c-1.19-0.65-2.63-0.16-3.32,0.27C471.93,605.87,471.33,609.47,472.46,613.58z"/>
	<path class="st20" d="M460.65,619.05c-0.65-3.25-2.31-5.54-4.14-5.72c-0.11-0.01-1.54-0.13-2.3,0.82
		c-0.66,0.82-0.47,1.99-0.23,2.57C454.65,618.41,457.33,619.36,460.65,619.05z"/>
	<path class="st20" d="M461.7,630.99c-3.84-0.57-7.01,0.35-7.9,2.31c-0.05,0.12-0.73,1.65,0.03,2.87c0.65,1.05,2.02,1.31,2.76,1.28
		C458.71,637.37,460.78,634.78,461.7,630.99z"/>
	<path class="st20" d="M473.18,632.43c-0.81,2.72-0.47,5.16,0.86,6.07c0.08,0.06,1.12,0.75,2.09,0.36c0.84-0.34,1.16-1.3,1.22-1.84
		C477.52,635.46,475.85,633.6,473.18,632.43z"/>
	<path class="st20" d="M479.44,624.23c3.7,2.11,7.3,2.44,8.98,0.8c0.1-0.1,1.39-1.39,1.09-2.95c-0.26-1.34-1.55-2.14-2.32-2.41
		C484.99,618.9,481.86,620.72,479.44,624.23z"/>
	<path class="st40" d="M468.21,562.27c-2.94,2.08-3.12,6.54-2.4,9.2c1.44,5.33,8.06,9.23,16.54,9.39
		c1.66-8.13-0.44-15.37-5.25-18.17C475.03,561.48,471.04,560.27,468.21,562.27z"/>
	<path class="st40" d="M443.17,573.06c-0.93,2.66,1.26,5.79,3.12,7.31c3.74,3.04,10.27,2.9,16.14-0.59
		c-3.07-6.26-8.24-10.32-12.97-10.2C447.41,569.63,444.07,570.49,443.17,573.06z"/>
	
		<ellipse transform="matrix(0.9962 -0.087 0.087 0.9962 -53.6548 18.1337)" class="st41" cx="181.21" cy="624.61" rx="10.44" ry="9.41"/>
	<ellipse class="st41" cx="218.25" cy="627.62" rx="7.92" ry="7.18"/>
	<polygon class="st42" points="185.61,619.55 183.74,622.02 185.08,624.79 181.73,623.97 179.11,625.86 178.91,622.89 
		175.95,621.29 179.18,620.27 179.96,617.39 182.16,619.74 	"/>
	<polygon class="st42" points="218.37,621.33 218.47,623.7 220.6,624.74 218.25,625.81 217.63,628.18 216.07,626.49 213.57,626.91 
		214.96,624.79 214.02,622.68 216.44,623.06 	"/>
	<path class="st43" d="M492.47,565.18v64.21c0,6.6-5.4,12-12,12H174.06c-6.6,0-12-5.4-12-12v-64.21c0-1.31,0.21-2.58,0.61-3.77
		c0.75-2.23,2.13-4.18,3.94-5.62c2.05-1.63,4.64-2.61,7.45-2.61h306.41C487.07,553.18,492.47,558.58,492.47,565.18z"/>
	<path class="st41" d="M194.9,613.22c0-3.97,3.55-7.18,7.92-7.18c4.38,0,7.92,3.22,7.92,7.18s-3.55,7.18-7.92,7.18
		C198.45,620.4,194.9,617.19,194.9,613.22z"/>
	<polygon class="st42" points="199.08,613.46 200.37,611.47 199.24,609.39 201.79,609.88 203.66,608.31 203.95,610.6 206.23,611.71 
		203.86,612.63 203.4,614.89 201.65,613.17 	"/>
	<rect x="221.52" y="569.26" class="st16" width="226.1" height="62.46"/>
	<text transform="matrix(1 0 0 1 221.5246 612.4137)" class="st22 st17 st27">register</text>
</g>
<g id="Layer_17" class="st0">
	<g class="st1">
		<g>
			
				<ellipse transform="matrix(0.2842 -0.9588 0.9588 0.2842 47.3887 759.436)" class="st44" cx="532.32" cy="347.98" rx="2.3" ry="5.25"/>
			<polygon class="st42" points="530.83,391.82 517.03,387.94 525.52,345.79 539.32,349.67 			"/>
		</g>
		<line class="st45" x1="522.78" y1="395.43" x2="533.57" y2="346.63"/>
		<ellipse class="st21" cx="496.87" cy="398.64" rx="60.89" ry="10.57"/>
		<path class="st21" d="M558.45,397.01l-2.84,42.85c-13.45,5.44-24.69,7.14-32.78,7.65c-31.49,1.98-48.64-12.02-82.02-6.95
			c-0.69,0.11-1.37,0.22-2.04,0.33l-4.06-43.88H558.45z"/>
		<path class="st46" d="M556.48,440.86c-13.64,5.43-25.03,7.14-33.24,7.64c-31.93,1.99-49.32-12.01-83.17-6.94
			c-0.7,0.1-1.39,0.22-2.07,0.33l1.79,19.13l5.51,58.76h-0.02c11.47,4.43,29.76,9.85,52.67,9.87c23.09,0.03,41.49-5.43,52.99-9.87
			c0.11-0.1,0.19-0.2,0.26-0.31l0.08-1.29c0,0,0-0.01-0.01-0.01l4.01-59.56L556.48,440.86z M446.07,519.78
			c-0.08-0.09-0.15-0.17-0.21-0.25c0.06,0.08,0.14,0.16,0.22,0.25H446.07z"/>
		<rect x="442.36" y="401.3" class="st16" width="121.92" height="40.54"/>
		<text transform="matrix(1 0 0 1 442.3581 431.2034)" class="st47 st17 st48">menu</text>
		<ellipse class="st49" cx="460.73" cy="503.92" rx="7.66" ry="7.2"/>
		<ellipse class="st49" cx="475.43" cy="487.21" rx="7.02" ry="7.5"/>
		<ellipse class="st49" cx="481.59" cy="509.28" rx="9.17" ry="8.46"/>
		<ellipse class="st49" cx="494.71" cy="492.04" rx="8.05" ry="7.9"/>
		<ellipse class="st49" cx="501.74" cy="512.06" rx="6.5" ry="6.88"/>
		<ellipse class="st49" cx="516.48" cy="493.52" rx="9.25" ry="8.55"/>
		<ellipse class="st49" cx="519.25" cy="511.8" rx="5.79" ry="5.77"/>
		<path class="st50" d="M430.72,389.97c-0.53,3.11-1.06,6.22-1.58,9.34c22.19-0.75,45.12-1.14,68.74-1.12
			c22.17,0.02,43.72,0.42,64.63,1.12c-0.5-3.08-1-6.16-1.5-9.25c-19.25-1.78-40.3-2.93-62.93-3.02
			C473.75,386.95,451.2,388.11,430.72,389.97z"/>
		<path class="st51" d="M460.52,368.28"/>
		<ellipse class="st49" cx="536.31" cy="506.09" rx="7.66" ry="7.37"/>
		
			<ellipse transform="matrix(0.5964 -0.8027 0.8027 0.5964 -174.0941 627.7795)" class="st49" cx="537.26" cy="487.02" rx="7.88" ry="6.96"/>
		<ellipse class="st49" cx="458.53" cy="486.93" rx="5.71" ry="5.05"/>
		<ellipse class="st49" cx="485.16" cy="471.17" rx="7" ry="6.98"/>
		<ellipse class="st49" cx="525.5" cy="477.73" rx="4.75" ry="4.65"/>
		<ellipse class="st49" cx="505.27" cy="476.63" rx="5.78" ry="5.83"/>
		<ellipse class="st49" cx="518.87" cy="464.54" rx="7.66" ry="7.2"/>
		<ellipse class="st49" cx="459.47" cy="467.61" rx="8.28" ry="7.64"/>
		
			<ellipse transform="matrix(0.749 -0.6625 0.6625 0.749 -179.7453 445.2185)" class="st49" cx="497.78" cy="459.86" rx="6.03" ry="6.95"/>
		<ellipse class="st49" cx="541.15" cy="465.1" rx="6.02" ry="6.1"/>
		<ellipse class="st49" cx="475.86" cy="456.88" rx="5.22" ry="5.02"/>
		<g>
			<line class="st52" x1="433.78" y1="397.54" x2="444.92" y2="519.7"/>
			<line class="st52" x1="559.31" y1="399.08" x2="551.19" y2="519.51"/>
			<path class="st52" d="M445.15,519.79c10.92,4.18,27.15,8.94,47.25,9.71c25.86,0.99,46.43-5.08,58.62-9.74"/>
		</g>
		<path class="st52" d="M516.37,385.95c2.8-13.67,5.6-27.33,8.41-41c0.63-0.51,3.2-2.48,6.78-2.21c5.42,0.4,8,5.52,8.11,5.75
			c-2.65,12.93-5.31,25.86-7.96,38.78"/>
	</g>
</g>
<g id="Layer_18" class="st0">
	<g class="st1">
		
			<ellipse transform="matrix(0.91 -0.4146 0.4146 0.91 -203.2249 114.2542)" class="st53" cx="161.58" cy="525.26" rx="5.28" ry="4.32"/>
		<polygon class="st54" points="100.21,470.03 111.61,461.49 167.59,521.39 156.19,529.93 		"/>
	</g>
	<path class="st55" d="M127.07,461.05c-4.51,11.78-13.44,18.51-17.05,20.77c-0.9,0.56-18.83,11.37-37.83,3.71
		c-19.03-7.68-33.41-31.58-24.48-54.88c8.39-21.92,32.96-32.88,54.88-24.48C124.5,414.57,135.46,439.14,127.07,461.05z"/>
	<circle class="st30" cx="88.2" cy="445.8" r="27.28"/>
	<circle class="st56" cx="88.2" cy="445.8" r="18.89"/>
	<path class="st31" d="M155.33,531.51c-14.77-16.15-29.53-32.31-44.3-48.46c-17.75,10.44-40.34,7.58-54.63-6.74
		c-14.71-14.75-17.38-38.4-6.13-55.16c13.71-20.43,44.44-25.18,64.08-9.29c17.1,13.84,21.31,39.74,8.62,59.59
		c15.22,16.47,30.45,32.94,45.67,49.41c0.1,0.35,1.34,5.18-1.88,8.77C164.06,532.66,159.35,533.49,155.33,531.51z"/>
	<path class="st57" d="M52.07,443.46c0.33-3.35,1.46-10.18,6.17-17.2c5.02-7.47,11.41-11.15,14.44-12.65"/>
</g>
<g id="Layer_4" class="st0">
	<path class="st4" d="M271.79,374.18l25.42,1.35c1.11,26.37,2.22,52.74,3.33,79.11c-0.16,0.74-0.51,1.84-1.33,2.87
		c-2.2,2.75-6.03,2.77-12.68,2.69c-6.7-0.07-10.4-0.17-12.73-2.95c-0.9-1.08-1.33-2.25-1.55-3.11
		C272.09,427.48,271.94,400.83,271.79,374.18z"/>
	<path class="st3" d="M436.77,350.79c-11.38,5.45-22.56,4.06-26.76,3.16c-1.05-0.22-21.64-5-30.4-24.1
		c-8.77-19.14-3.02-46.89,19.48-57.67c21.16-10.14,46.75-0.77,57.16,20.94C466.66,314.83,457.93,340.65,436.77,350.79z"/>
	<path class="st58" d="M530.09,358.73c-0.45-21.88-0.9-43.76-1.35-65.64c-20.23-3.86-35.32-20.9-36.62-41.09
		c-1.33-20.79,12.26-40.33,31.77-45.51c23.78-6.31,50.02,10.38,54.29,35.28c3.72,21.68-10.19,43.93-32.82,50.49
		c0.58,22.42,1.17,44.84,1.75,67.26c-0.16,0.32-2.41,4.78-7.2,5.35C535.89,365.34,531.8,362.87,530.09,358.73z"/>
	<path class="st3" d="M412.72,350.13c-1.58,4.14-2.99,11.84-1.86,16.92c0.88,3.99,2.93,4.54,6.46,5.36
		c4.96,1.15,9.16,2.12,10.51-3.95c1.19-5.35-0.32-13.95-2.19-18.61C422.2,341.24,415.88,341.84,412.72,350.13z"/>
	<path class="st4" d="M407.04,292.24c-1.63,0.78-3.22,0.58-3.83,0.45c-0.15-0.03-3.09-0.71-4.35-3.45c-1.25-2.74-0.43-6.7,2.79-8.24
		c3.03-1.45,6.68-0.11,8.17,2.99C411.31,287.1,410.07,290.79,407.04,292.24z"/>
	<path class="st59" d="M388.54,292.24c-1.63,0.78-3.22,0.58-3.83,0.45c-0.15-0.03-3.09-0.71-4.35-3.45
		c-1.25-2.74-0.43-6.7,2.79-8.24c3.03-1.45,6.68-0.11,8.17,2.99C392.81,287.1,391.56,290.79,388.54,292.24z"/>
	<path class="st59" d="M414.76,278.75c-1.63,0.78-3.22,0.58-3.83,0.45c-0.15-0.03-3.09-0.71-4.35-3.45
		c-1.25-2.74-0.43-6.7,2.79-8.24c3.03-1.45,6.68-0.11,8.17,2.99C419.03,273.61,417.78,277.3,414.76,278.75z"/>
	<path class="st59" d="M400.36,307.72c-1.63,0.78-3.22,0.58-3.83,0.45c-0.15-0.03-3.09-0.71-4.35-3.45
		c-1.25-2.74-0.43-6.7,2.79-8.24c3.03-1.45,6.68-0.11,8.17,2.99C404.64,302.58,403.39,306.27,400.36,307.72z"/>
	<path class="st4" d="M384.21,303.87c-1.02,0.49-2.02,0.36-2.39,0.28c-0.09-0.02-1.94-0.45-2.72-2.16
		c-0.78-1.71-0.27-4.19,1.74-5.16c1.89-0.91,4.18-0.07,5.11,1.87C386.89,300.65,386.1,302.96,384.21,303.87z"/>
	<path class="st4" d="M397.31,279.97c-1.27,0.61-2.51,0.45-2.98,0.35c-0.12-0.02-2.41-0.56-3.38-2.68
		c-0.98-2.13-0.34-5.22,2.17-6.42c2.35-1.13,5.2-0.09,6.36,2.33C400.63,275.97,399.66,278.84,397.31,279.97z"/>
	<path class="st59" d="M420.08,290.65c-1.17,0.56-2.31,0.42-2.74,0.32c-0.11-0.02-2.22-0.51-3.12-2.47c-0.9-1.96-0.31-4.81,2-5.92
		c2.17-1.04,4.8-0.08,5.86,2.15C423.14,286.96,422.25,289.61,420.08,290.65z"/>
	<path class="st8" d="M263.21,243.43c-24.88,12.83-27.5,51.86-28.81,71.34c-0.99,14.77,0.63,22.72-0.88,62.52
		c-0.19,4.89-0.37,8.91-0.49,11.56c2.23,0.9,5.54,2.14,9.63,3.29c12.19,3.45,19.34,2.79,39.08,2.88
		c27.42,0.13,35.07,1.51,47.68-3.68c3.41-1.4,6.11-2.85,7.88-3.86c-0.34-3.01-0.84-7.53-1.39-13.02
		c-3.78-37.67-2.72-47.26-4.42-60.89c-0.88-7.04-7.86-63.02-40.16-72.9C277.31,236.39,264.64,242.69,263.21,243.43z"/>
	<path class="st4" d="M259.03,276.29c0.99-3.31,2.78-8.36,5.76-8.79c2.41-0.35,4.56,2.44,5.37,3.5c7.19,9.33,6.33,72.43,6.01,89.43
		c0.11,1.62,0.14,5.32-1.98,8.26c-3.9,5.4-13.04,5.33-17.21-0.06c-2.33-3.01-2.45-6.84-2.42-8.39c0.67-17.21,0.42-30.96,0.08-40.29
		C254.58,318.39,253.68,294.2,259.03,276.29z"/>
	<path class="st4" d="M291.86,276.65c0.86-3.36,2.45-8.49,5.41-9.07c2.39-0.47,4.65,2.22,5.5,3.23c7.54,8.96,9.15,72.05,9.5,89.05
		c0.17,1.61,0.35,5.31-1.66,8.35c-3.69,5.59-12.82,5.97-17.2,0.8c-2.45-2.89-2.72-6.71-2.75-8.27c0-17.23-0.79-30.95-1.5-40.26
		C289.05,318.93,287.21,294.81,291.86,276.65z"/>
	<path class="st3" d="M139.27,371.69l25.42,1.35c1.11,26.37,2.22,52.74,3.33,79.11c-0.16,0.74-0.51,1.84-1.33,2.87
		c-2.2,2.75-6.03,2.77-12.68,2.69c-6.7-0.07-10.4-0.17-12.73-2.95c-0.9-1.08-1.33-2.25-1.55-3.11
		C139.58,424.99,139.42,398.34,139.27,371.69z"/>
	<path class="st59" d="M130.69,240.94c-24.88,12.83-27.5,51.86-28.81,71.34c-0.99,14.77,0.63,22.72-0.88,62.52
		c-0.19,4.89-0.37,8.91-0.49,11.56c2.23,0.9,5.54,2.14,9.63,3.29c12.19,3.45,19.34,2.79,39.08,2.88
		c27.42,0.13,35.07,1.51,47.68-3.68c3.41-1.4,6.11-2.85,7.88-3.86c-0.34-3.01-0.84-7.53-1.39-13.02
		c-3.78-37.67-2.72-47.26-4.42-60.89c-0.88-7.04-7.86-63.02-40.16-72.9C144.79,233.91,132.12,240.2,130.69,240.94z"/>
	<path class="st3" d="M126.51,273.81c0.99-3.31,2.78-8.36,5.76-8.79c2.41-0.35,4.56,2.44,5.37,3.5c7.19,9.33,6.33,72.43,6.01,89.43
		c0.11,1.62,0.14,5.32-1.98,8.26c-3.9,5.4-13.04,5.33-17.21-0.06c-2.33-3.01-2.45-6.84-2.42-8.39c0.67-17.21,0.42-30.96,0.08-40.29
		C122.06,315.9,121.16,291.72,126.51,273.81z"/>
	<path class="st3" d="M159.34,274.16c0.86-3.36,2.45-8.49,5.41-9.07c2.39-0.47,4.65,2.22,5.5,3.23c7.54,8.96,9.15,72.05,9.5,89.05
		c0.17,1.61,0.35,5.31-1.66,8.35c-3.69,5.59-12.82,5.97-17.2,0.8c-2.45-2.89-2.72-6.71-2.75-8.27c0-17.23-0.79-30.95-1.5-40.26
		C156.53,316.44,154.69,292.32,159.34,274.16z"/>
</g>
<g id="Layer_9" class="st0">
	<g class="st1">
		<path class="st60" d="M411.41,465.7c20.92,2.84,36.83,30.85,40.96,53.16c4.6,24.9-4.88,45.09-8.92,52.62
			c-1.87-2.67-10.13-13.81-25.23-16.68c-14.74-2.8-30.26,3.37-40.17,15.81c-0.05-1.32-0.74-14.04-11.74-21.4
			c-8.99-6.01-18.51-4.19-20.33-3.81C353.7,492.99,387.03,462.39,411.41,465.7z"/>
		<path class="st61" d="M177.46,469.22c-21.29,1.11-37.39,30.48-41.98,51.8c-5.32,24.74,3.35,45.22,7.09,52.89
			c1.76-2.42,10.18-13.41,25.34-15.85c20.96-3.36,35.4,12.73,36.3,13.78c0.13-3.05,0.99-14.67,10.29-23.89
			c5.38-5.33,11.29-7.59,14.61-8.57C225.54,495.93,199,468.1,177.46,469.22z"/>
		<path class="st62" d="M369.74,438.73c-11.53,34.68-23.07,69.37-34.6,104.05c11.89,5.49,23.77,10.98,35.66,16.47
			c21.23-29.47,42.45-58.94,63.68-88.42c-2.46-4.59-12.93-22.9-35.23-30.19C386.71,436.54,375.71,437.65,369.74,438.73z"/>
		<path class="st62" d="M160.07,466.8c17.63,32.02,35.25,64.04,52.88,96.06c12.1-5,24.2-10,36.3-15
			c-7.22-35.6-14.44-71.19-21.66-106.79c-5.04-1.32-25.59-6.06-46.09,5.36C169.99,452.86,163.34,461.69,160.07,466.8z"/>
		<path class="st61" d="M196.55,428.38c14.82,44.01,29.64,88.02,44.45,132.04c15.01-2.02,32.23-3.4,51.27-3.31
			c23.04,0.11,43.53,2.35,60.82,5.29c12.75-45.06,25.5-90.12,38.25-135.19c-20.6-7.76-54.25-17.59-96.64-17.47
			C251.42,409.87,217.22,420.31,196.55,428.38z"/>
		<path class="st63" d="M441.89,574.15c-0.17-8.2-6.54-13.94-7.9-15.17c-11.52-10.39-32.28-9.88-44.89-1.08
			c-2.97,2.07-11.57,8.07-12.9,17.32c-0.6,4.16,0.61,6.71-1.55,9c-3.93,4.18-12.12,0.14-15.93,4.26c-2.08,2.25-2.04,6.06-1.12,8.34
			c4.41,10.93,40.71,15.42,65.34,1.05C427.77,595.05,442.15,586.66,441.89,574.15z"/>
		<path class="st62" d="M417.25,579.65c-2.18-1.8-8.1-6.2-16.86-6.91c-11.61-0.94-19.76,5.29-21.6,6.76"/>
		<path class="st64" d="M141.14,564.05c1.26-8.1,8.35-12.94,9.86-13.98c12.82-8.76,33.35-5.49,44.69,4.91
			c2.67,2.45,10.41,9.54,10.49,18.88c0.04,4.21-1.5,6.57,0.34,9.13c3.34,4.66,12.01,1.75,15.24,6.35c1.76,2.51,1.22,6.28,0,8.41
			c-5.84,10.25-42.46,9.86-64.98-7.66C152.36,586.65,139.21,576.42,141.14,564.05z"/>
		<path class="st64" d="M165.15,575.98c2.55-1.49,9.41-5.06,18.73-4.6c12.35,0.62,20.06,7.87,21.78,9.58"/>
		<path class="st65" d="M269.84,557.69c4.01-11.4,13.11-42.08,3.22-79.3c-8.76-32.94-27.77-53.61-36.61-62.14"/>
		<path class="st65" d="M337.96,413.1c-7.95,9.14-23.48,29.56-29.06,59.93c-7.85,42.65,9.25,75.88,14.7,85.55"/>
		<path class="st65" d="M428.21,464.59c-9.64,9.64-20.07,21.39-30.32,35.45c-14.95,20.51-25.3,40.2-32.52,56.69"/>
		<path class="st65" d="M165.91,460.51c5.89,8.14,11.8,16.89,17.6,26.27c15.64,25.28,27.15,49.68,35.72,71.71"/>
		<path class="st65" d="M134.03,530.94c1.47-2.3,9.05-13.69,22.21-15.25c9.16-1.09,16.17,3.16,22.09,6.85
			c17.22,10.76,25.13,27.72,28.53,37.02"/>
		<path class="st65" d="M442.78,534.89c-3.28-2.12-11.73-6.95-23.19-6.54c-10.28,0.37-17.43,4.76-21.4,7.27
			c-12.95,8.18-18.66,20.18-20.81,25.57"/>
	</g>
</g>
<g id="Layer_10" class="st0">
	<g class="st1">
		<path class="st62" d="M146.31,201.05c-14.3-3.82-23.97-15.24-24.31-27.48c-0.31-11.22,7.21-23.65,14.09-23.6
			c9.15,0.06,20.33,22.19,15.5,40.16C150.36,194.75,148.24,198.39,146.31,201.05z"/>
		<path class="st62" d="M147.14,200.1c14.69,0.21,27.04-8.14,30.71-19.83c3.36-10.7-0.4-24.7-6.98-26.53
			c-8.74-2.42-25.47,15.82-25.78,34.42C145.01,192.94,146.03,197.02,147.14,200.1z"/>
		<path class="st62" d="M144.48,201.57c-9.41,5.2-22.51,3-32-4.74c-8.7-7.09-14.77-19.15-11.61-22.81
			c4.2-4.86,26.16,3.45,37.68,17.66C141.51,195.33,143.33,198.82,144.48,201.57z"/>
	</g>
	<path class="st66" d="M36.59,306.5c-0.47,7.53,44.36,11.56,55.45,42.66c0.82,2.29,1.33,4.39,1.66,6.12
		c0.36,1.87,1.91,3.27,3.8,3.46c33.71,3.41,71.18,5.57,111.85,5.35c40.89-0.22,78.54-2.81,112.37-6.62c2.21-0.25,3.9-2.14,3.83-4.37
		c-0.05-1.57,0.04-3.39,0.39-5.36c4.53-25.05,45.34-31.11,44.79-39.1c-1-14.6-138.47-15.53-162.81-15.64
		C193.26,292.92,37.45,292.49,36.59,306.5z"/>
	<path class="st67" d="M102.76,346.39c0.91-26.98,2-50.85,3.06-70.93c2.32-44.1,4.21-65.15,15.58-69.38
		c4.72-1.76,9.72-0.1,13.01,1.42c42.1-0.81,84.19-1.62,126.29-2.43c6.2-1.58,14.6-2.55,21.8,1.53c14.16,8.02,14.06,30.12,16.73,61.2
		c1.62,18.85,4.63,45.16,10.72,77.06C240.88,345.37,171.82,345.88,102.76,346.39z"/>
	<path class="st66" d="M370.1,309.36c0.55,8-40.26,14.05-44.79,39.1c-0.36,1.97-0.45,3.79-0.39,5.36c0.06,2.23-1.62,4.12-3.84,4.37
		c-33.83,3.81-71.48,6.4-112.37,6.62c-40.67,0.22-78.14-1.94-111.85-5.35c-1.89-0.18-3.44-1.59-3.8-3.46
		c-0.32-1.73-0.84-3.83-1.66-6.12c-11.09-31.1-55.92-35.12-55.45-42.66c0.03-0.48,0.25-0.95,0.63-1.39
		c6.83,0.7,14.47,1.45,22.78,2.19c27.75,2.5,74.85,6.64,136.05,7.41c44.26,0.56,89.72,0.97,149.87-6.19
		c8.68-1.03,16.29-2.06,22.41-2.94C369.19,307.26,370.03,308.28,370.1,309.36z"/>
	<path class="st68" d="M61.36,320.32c39.95,4.83,84.02,8.28,131.67,9.18c55.92,1.05,107.2-1.59,152.94-6.13"/>
	<path class="st69" d="M133.25,191.26c-5.41,4.62-12.81-1.68-19.85,1.97c-7.3,3.79-11.14,16.71-7.03,22.01
		c5.5,7.11,23.96-1.16,28.65,6.72c1.49,2.5,0.09,4.1,2.05,6.55c3.71,4.64,13.85,5.35,18.93,0.87c4.59-4.04,1.5-9.19,6.04-13.22
		c4.61-4.1,13.21-3.6,18.87-0.52c5.98,3.25,4.99,7.39,10.61,10.01c8.12,3.79,17.91-1.26,18.47-1.55c8.64-4.6,9.33-12.17,16.21-12.64
		c1.47-0.1,3.46,0.63,7.44,2.1c11.56,4.27,12.37,7.13,16.41,6.94c7.72-0.37,9.56-11.05,15.61-10.52c5.13,0.45,5.22,8.26,12.08,11.69
		c7.5,3.75,19.62,0.53,23.5-6.33c6.22-11.01-8.38-32.04-20.75-32.63c-9.05-0.43-14.61,10.2-22.05,7.32
		c-5.35-2.08-6.15-9.01-11.62-9.26c-2.36-0.11-5.09,1.05-6.5,3.1c-3.2,4.63,1.8,11.55-0.1,12.95c-1.5,1.1-5.45-2.58-11.87-7.15
		c-8.52-6.06-13.92-9.9-21.16-11.27c-3.1-0.59-10.69-2.02-17.18,1.92c-6.24,3.79-5.76,9.07-11.65,10.8
		c-4.44,1.3-9.42-0.32-12.55-2.66c-3.7-2.77-2.78-5.02-5.95-7.73c-5.55-4.75-16.41-4.77-21.53,0.23
		C134.53,184.64,136.82,188.2,133.25,191.26z"/>
	<path class="st69" d="M106.8,258.19c31.51,3.23,66.92,5.12,105.57,4.36c31.01-0.61,59.77-2.83,85.95-5.95
		c0.28,6.91,0.56,13.83,0.85,20.74c-23.99,4.75-52.57,8.57-84.85,9.34c-42.53,1.01-79.39-3.57-108.6-9.34
		C106.08,270.96,106.44,264.57,106.8,258.19z"/>
	<g class="st1">
		<path class="st62" d="M243.81,199.1c-9.28-11.53-10.33-26.46-3.37-36.53c6.38-9.23,19.79-14.82,25.32-10.71
			c7.34,5.46,3.29,29.91-11.23,41.56C250.79,196.41,246.94,198.1,243.81,199.1z"/>
		<path class="st62" d="M245.04,198.83c11.72,8.85,26.62,9.41,36.49,2.15c9.04-6.65,14.28-20.16,10.05-25.52
			c-5.62-7.12-29.89-2.29-41.14,12.53C247.55,191.8,245.96,195.69,245.04,198.83z"/>
		<path class="st62" d="M242.02,198.44c-10.66-1.37-19.93-10.89-23.02-22.74c-2.83-10.86-0.59-24.18,4.12-25.26
			c6.26-1.44,19.06,18.24,19.96,36.51C243.31,191.66,242.72,195.55,242.02,198.44z"/>
	</g>
	<path class="st70" d="M108.61,268.29c25.42,4.11,55.5,7.15,89.31,7.1c38.76-0.06,72.79-4.18,100.78-9.4"/>
	<path class="st70" d="M130.96,192.58c-7.6,1.36-13.21,4.89-13.37,8.45c-0.23,5.04,10.44,10.9,16.44,8.22
		c6.44-2.87,3.56-13.81,10.84-17.56c4.99-2.57,12.59-0.63,14.2,2.99c1.82,4.09-4.86,8.33-3.74,15.32c0.59,3.63,3.01,6.32,5.11,8.1"
		/>
	<path class="st70" d="M174.28,191.56c1.44,2.48,3.74,5.48,6.91,5.82c6.03,0.64,10.76-8.85,13.14-7.72
		c2.62,1.25-3.59,12.56,1.31,19.21c3.01,4.08,9.79,5.87,14.45,3.94c5.95-2.46,4.52-9.36,10.35-11.99c5.6-2.53,13.62,0.82,18.06,5.91
		c3.7,4.23,4.38,9.06,4.55,11.06"/>
</g>
<g id="Layer_13" class="st0">
	<g class="st1">
		<path class="st71" d="M44.38,468.96c-4.83,8.45-11.81,23.08-14.46,42.63c-3.07,22.63,0.11,48.52,9.11,64.17
			c34.49,59.95,193.02,36.62,209.52-18.82c4.39-14.74-0.18-35.43-3.64-51.14c-5.04-22.83-13.47-40.34-20.03-51.75"/>
		<path class="st62" d="M20.82,495.32c-2.18,6.84-5.44,15.27-1.67,19.08c1.85,1.87,4.96-0.39,7.87,1.67
			c3.47,2.46,3.38,8.1,3.36,9.51c-0.13,8.25-5.7,9.92-7.21,17.26c-1.62,7.91,2.23,18.7,9.6,21.34c5.71,2.04,14-0.65,17.81-6.35
			c7.73-11.56-7.78-28.28,0.89-40.48c0.71-1,2.79-3.84,6.12-4.42c5.11-0.89,11.34,3.85,13.73,9.36c4.16,9.58-5.81,15.64-3.43,29.02
			c0.16,0.91,2.67,14.02,11.55,16.23c5.69,1.41,12.47-2.02,15.6-6.87c3.36-5.2,0.19-8.45,3.12-20.6c2.16-8.94,4.81-11.09,5.93-11.86
			c4.7-3.24,10.62-1.73,11.23-1.56c9.15,2.47,14.7,14.14,15.88,23.66c1.62,12.98-5.46,17.25-1.98,25.44
			c3.4,7.98,14.25,13.64,22.61,11.44c12.12-3.18,16.19-22.13,12.79-34.95c-1.8-6.82-7.82-7.85-8.23-14.28
			c-0.39-6.06,3.53-13.32,9.55-15.16c8.27-2.53,18.06,5.91,19.78,13.81c1.61,7.44-4.54,11.68-1.57,17.89
			c1.84,3.85,6.48,6.59,10.99,6.28c5.78-0.4,9.83-5.74,10.88-10.25c1.19-5.07-1.73-7.64-4.28-15.48c-1.89-5.8-5.54-17.05-0.95-25.12
			c4.7-8.26,17.83-12.87,24.48-8.48c7.22,4.76,5.36,20.1,5.02,22.91c-1.05,8.65-4.23,11.65-2.2,16.32
			c2.19,5.03,8.86,8.35,14.44,7.53c8.59-1.26,13.71-12.19,14.44-20.4c0.92-10.26-5.38-12.09-7.85-27.31
			c-1.67-10.34,0.84-11.92-0.47-24.13c0,0-1.35-12.55-6.37-24.57c-8.55-20.49-27.45-32.09-38.21-38.52
			c-18.86-11.26-55.94-33.52-102.01-20.71c-40.85,11.36-68.06,44.49-74.38,66.33C24.6,469.61,26.91,476.23,20.82,495.32z"/>
		<path class="st45" d="M187.65,404.02c-13.18-3.28-39.8-7.93-69.86,1.86c-11.54,3.76-48.88,15.91-50.34,38.54
			c-1.2,18.62,22.57,33.89,35.3,39.61c35.41,15.93,76.58-1.06,95.02-23.32c8.58-10.36,7.75-16.44,7.45-18.06
			c-2.95-15.49-34.23-20.12-40.89-21.18c-4.57-0.73-46.77-7.44-57.15,12.81c-3.84,7.49-2.89,17.84,2.46,23.65
			c11.59,12.57,41.8-0.24,41.88-7.39c0.02-2.29-3.01-5.49-16.63-9.44"/>
	</g>
</g>
<g id="Layer_5" class="st0">
	<path class="st4" d="M243.7,315c18.17,47.55,36.35,95.1,54.52,142.64c2.17,2.41,4.34,4.82,6.51,7.24
		c15.68-51.13,31.36-102.27,47.03-153.4c-12.41,4.39-30.81,9.36-53.55,10.13C275.28,322.39,256.43,318.59,243.7,315z"/>
	<path class="st3" d="M239,281.11c0.85-5.11,3.86-21.92,16.69-34.6c17.18-16.97,50.67-25.26,76.15-6.92
		c20.77,14.95,29.39,42.66,20.71,67.84c4.49-2.4,8.87-2.82,10.67-0.92c2.79,2.94-1.59,10.34-2.31,11.54
		c-4.42,7.37-14.49,15.15-24.46,13.38c-7.66-1.36-10.06-7.43-14.77-6c-4.84,1.47-3.43,8.24-9.23,12.92
		c-6.37,5.14-16.85,4.08-23.54,1.38c-10.64-4.29-10.85-12.37-19.38-13.38c-6.17-0.73-7.01,3.38-16.61,4.62
		c-7.38,0.95-19.1,0.1-21.69-6c-1.22-2.87-0.54-7.19,2.31-9.69c3.08-2.71,7.23-1.97,7.85-1.85
		C239.42,307.24,236.61,295.49,239,281.11z"/>
</g>
<g id="Layer_6" class="st0">
	<path class="st72" d="M337.09,207.46c-6.83,9.65-15.68,23.84-23.21,42.25c-7.25,17.71-19.83,48.46-14.88,87.48
		c3.31,26.1,13.36,47.14,23.21,62.3"/>
	<path class="st72" d="M278.76,514.64c-4.3-24.4-5.8-57.96,12.1-86.57c17.74-28.34,42.45-32.56,73.22-57.98
		c21.04-17.39,47.08-46.48,66.04-97.28"/>
	<path class="st73" d="M290.24,351.45c-0.07,1.61-1.77,2.45-3.77,1.85c-12.47-3.76-31.55-10.9-52.22-24.41
		c-16.06-10.49-27.74-21.34-35.49-29.52c-1.26-1.33-1.42-3-0.36-3.88c12.58-10.48,32.06-12.92,50.07-5.73
		c26.81,10.71,38.81,38.18,41.23,52.97C290.27,346.14,290.35,349.08,290.24,351.45z"/>
	<path class="st8" d="M292.9,431.95c-10.9,17.17-30.91,20.07-40.62,12.07c-8.89-7.33-10.07-24.55-2.42-31.93
		c8-7.72,27.28-6.23,40.23,9.97c-15.85-4.9-22.5-20.67-17.91-30.67c4.43-9.66,19.77-14.82,28.73-8.51
		c8.43,5.94,10.54,21.57,0.42,32.68c1.74-10.7,11.55-17.63,20.88-16.05c9.3,1.57,15.69,11.17,14.45,17.83
		c-1.5,8.09-14.92,15.42-32.92,11.91c12.42-0.31,22.24,4.76,23.79,11.13c2.36,9.67-13.8,24.48-25.17,20.4
		C294.24,457.86,288.47,445.29,292.9,431.95z"/>
	<path class="st74" d="M339.48,653.35c-1.41,26.54-7.13,61.9-19.27,109.09c-0.27,1.06-0.93,1.96-1.86,2.54
		c-6.5,4.03-20.8,11.49-40.22,11.33c-18.06-0.14-31.45-6.79-37.87-10.62c-0.87-0.51-1.51-1.33-1.83-2.29
		c-15.72-47.62-23.9-83.14-27.02-109.69c5.43-13.56,13.82-25.67,26.64-33.28c20.83-12.36,52.32-12.18,56.13-3.48
		c3.35,7.64-16.31,18.03-13.05,29.15c3.22,11.02,27.03,16.29,45.25,12.19C331.17,657.21,335.53,655.49,339.48,653.35z"/>
	<path class="st75" d="M339.48,653.35c-3.95,2.14-8.31,3.86-13.1,4.94c-18.22,4.1-42.03-1.17-45.25-12.19
		c-3.26-11.12,16.4-21.51,13.05-29.15c-3.81-8.7-35.3-8.88-56.13,3.48c-12.82,7.61-21.21,19.72-26.64,33.28
		c-4.56-38.69,1.63-58.33,10.88-68.61c4.27-4.75,23.67-23.62,30.52-53.86c2.01-8.87,2.44-16.53,2.45-21.86
		c0-0.66-0.16-1.32-0.47-1.91L243,484.57c-0.97-1.87-0.41-4.18,1.32-5.37c4.72-3.26,13.31-7.93,24.83-8.41
		c14.31-0.59,24.93,5.62,29.98,9.31c1.6,1.17,2.18,3.29,1.38,5.11c-3.56,8.05-7.11,16.11-10.66,24.16
		c-0.19,0.42-0.31,0.86-0.35,1.32c-0.41,4.77-0.58,11.69,0.88,19.74c5.34,29.34,27.6,47.48,32.68,52.28
		C333.62,592.67,341.63,612.6,339.48,653.35z"/>
	<path class="st3" d="M292.09,414.36c4.76-12.06,18.37-17.31,26.58-14.29c7.51,2.76,11.28,12.72,7.14,18.43
		c-4.33,5.97-18.17,8.5-30.06,1.21c12.01,0.1,19.38,8.24,17.85,14.95c-1.48,6.49-11.41,12.24-18.8,10.1
		c-6.96-2.02-11.11-10.88-5.86-19.23c0.6,6.63-5.14,12.45-11.98,13.16c-6.83,0.71-12.96-3.83-13.23-7.98
		c-0.32-5.04,7.89-11.74,21.18-12.84c-8.7,2.37-16.49,1.11-18.67-2.37c-3.31-5.29,5.56-16.89,14.27-16.49
		C286.73,399.29,292.94,405.7,292.09,414.36z"/>
	<path class="st73" d="M316.4,342.85c0.57,2.41,3.06,3.8,5.59,3.12c10.69-2.86,26.09-8.59,41.44-20.56
		c11.94-9.31,20.05-19.43,25.33-27.39c1.27-1.92,1.04-4.37-0.59-5.81c-14.15-12.47-32.56-17.1-47.4-11.32
		c-22.42,8.74-27.01,37.53-25.72,53.48C315.32,337.58,315.83,340.44,316.4,342.85z"/>
	<path class="st8" d="M356.72,368.09c-6.95-15.1,1.21-28.83,12.06-30.9c9.93-1.89,23.13,5.79,24.59,14.1
		c1.53,8.69-9.47,19.84-27.98,19.9c11.74-7.37,26.69-3.76,31.64,3.95c4.78,7.45,0.68,19.41-8.55,21.85
		c-8.68,2.29-21.2-4.05-24.11-15.7c6.93,6.3,6.95,15.72,1,20.69c-5.93,4.96-16.24,4.2-20.47,0.19c-5.14-4.88-3.61-16.72,8.22-26.09
		c-6.16,7.8-14.92,11.37-20.37,9.21c-8.28-3.27-10.8-20.45-1.98-25.46C337.08,356.26,349.25,358.85,356.72,368.09z"/>
	<path class="st3" d="M366.44,373.45c2.4,10.62-4.8,19.44-12.12,20.21c-6.7,0.71-14.18-5.25-13.97-10.96
		c0.22-5.97,8.9-12.88,20.9-11.85c-8.63,4.31-17.82,1-19.95-4.5c-2.06-5.31,2.27-13.17,8.58-14.29c5.94-1.05,13.17,3.96,13.44,12.02
		c-3.61-4.66-2.31-11.04,2.23-14.06c4.53-3.01,11.11-1.91,13.29,1.05c2.65,3.6,0.01,11.52-8.96,17.18
		c5.08-4.92,11.25-6.83,14.48-5.06c4.91,2.69,4.15,14.46-2.27,17.34C377.51,382.58,369.99,380.13,366.44,373.45z"/>
	<path class="st8" d="M318.52,253.32c9.49,11.74,7.35,24.23-0.12,27.3c-6.84,2.82-18.84-1.96-22.31-8.72
		c-3.63-7.07,1.36-17.75,15.09-20.1c-6.61,7.61-18.76,6.46-24.64,0.64c-5.68-5.62-6.06-16.12,0.1-19.3
		c5.8-2.99,16.91,0.74,22.41,10.11c-6.95-4.4-9.67-12.26-6.67-17.15c2.99-4.88,10.86-5.53,15.16-2.71
		c5.22,3.43,7.47,13.51,1.36,22.81c2.35-7.27,7.83-11.35,12.5-10.23c7.09,1.7,13.88,15.73,8.76,21.02
		C336.51,260.75,326.73,260.1,318.52,253.32z"/>
	<path class="st3" d="M307.63,252c-9.79-0.12-16.69-6.74-16.39-12.07c0.28-4.87,6.61-9.16,11.67-8.03
		c5.3,1.18,10.28,8.52,7.74,16.86c-2.67-6.86,1.52-12.81,6.71-13.38c5.02-0.55,11.44,3.87,11.58,8.54c0.13,4.4-5.32,8.66-12.54,7.47
		c4.65-1.76,10.16,0.25,12.24,4c2.08,3.73,0.2,8.21-2.74,9.25c-3.57,1.27-10.28-1.97-14.11-9.3c3.7,4.45,4.57,9.15,2.55,11.14
		c-3.06,3.02-13.46,0.46-15.16-4.58C297.98,258.29,301.19,253.37,307.63,252z"/>
	<path class="st73" d="M437.12,286.2c7.09-0.76,26.27-1.8,42.85,10.77c7.5,5.68,12.14,12.39,14.97,17.54
		c0.65-5.44,1.87-21.55-7.76-34.54c-3.67-4.95-10.99-14.82-23.67-13.6C447.68,267.89,437.58,285.37,437.12,286.2z"/>
	<path class="st8" d="M414.88,249.46c-14.43,4.44-25.22-2.19-25.3-10.27c-0.07-7.39,8.83-16.76,16.39-17.47
		c7.91-0.74,15.97,7.86,13.04,21.49c-4.6-8.97,0.99-19.81,8.58-23.11c7.33-3.18,17.22,0.37,17.88,7.27
		c0.62,6.49-6.98,15.42-17.72,17.04c6.67-4.82,14.98-4.41,18.4,0.19c3.42,4.59,1.09,12.14-3.13,15.07
		c-5.13,3.57-15.32,1.9-21.67-7.22c5.88,4.88,7.62,11.49,4.84,15.41c-4.21,5.95-19.77,7.03-22.76,0.31
		C401.28,263.38,405.53,254.54,414.88,249.46z"/>
	<path class="st3" d="M416.05,241.33c-9.28-3.12-13.81-11.54-11.89-16.52c1.76-4.55,9.1-6.69,13.57-4.06
		c4.68,2.75,7.17,11.27,2.19,18.42c0.89-5.31,5.49-8.95,10.21-8.61c5.59,0.4,9.78,6.25,8.69,9.62c-1.01,3.13-6.96,5.36-14.23,3.26
		c4.85-0.08,9.13,3.07,10.42,7.56c1.73,6.02-2.53,12.23-5.81,12.4c-3.65,0.19-7.63-7-10.21-17.63
		c-2.37,9.37-10.02,13.85-15.13,12.22c-3.7-1.18-6.66-5.75-5.99-9.45C398.77,243.63,406.29,239.16,416.05,241.33z"/>
</g>
<g id="Layer_7" class="st0">
	<path class="st76" d="M303.18,672.73c-4.71,7.41-17.78,24.86-41.68,31.54c-31.74,8.88-57.78-8.17-65.57-14.08
		c-1.41-1.08-2.39-2.61-2.76-4.35c-12.56-59.28-25.12-118.57-37.68-177.85c-0.07-0.34-0.12-0.67-0.14-1.02
		c-0.52-7.61-0.41-21.39,5.82-36.94c4.86-12.12,11.62-20.79,16.74-26.25c1.58-1.69,2.28-4.01,1.88-6.29
		c-2.4-13.95-4.81-27.91-7.21-41.87c-0.28-1.62-1.1-3.11-2.32-4.21c-0.22-0.19-0.43-0.39-0.64-0.58c-1.31-1.18-2.15-2.79-2.37-4.54
		c-0.36-2.86-0.84-5.88-1.46-9.03c-0.88-4.39-1.94-8.46-3.07-12.17c-0.86-2.81,0.06-5.85,2.3-7.75c1.21-1.03,2.61-2.09,4.2-3.13
		c2.37-1.55,5.18-3.03,8.45-4.19c6.5-2.31,12.64-2.6,17.71-2.09c2.98,0.3,5.59,0.87,7.7,1.46c2.77,0.78,4.83,3.13,5.25,5.98
		c0.58,3.93,1.35,8.09,2.38,12.45c0.66,2.85,1.39,5.57,2.16,8.15c0.5,1.71,0.36,3.53-0.38,5.14c-0.22,0.47-0.44,0.94-0.65,1.41
		c-0.66,1.41-0.84,3-0.54,4.53c2.76,13.76,5.52,27.53,8.29,41.3c0.5,2.53,2.29,4.61,4.72,5.48c6.25,2.21,14.05,5.82,21.91,11.84
		c16.76,12.82,24.05,29.04,26.98,37.03c0.15,0.42,0.26,0.85,0.34,1.3c10.22,61.2,20.45,122.4,30.67,183.6
		C304.51,669.38,304.15,671.21,303.18,672.73z"/>
	<path class="st77" d="M127.04,294.76c-27.46-7.2-66.08,4.24-70.44,25.47c-3.84,18.67,18.99,44.09,36.61,42.98
		c13.31-0.83,14.87-16.23,33.03-20.3c14.25-3.19,32.12,2.07,40.16,13.3c0,0,8.71,28.11,8.71,28.11l0,0c0,0,1.37,1.66,4.29,5.19
		c3.33,18.4,6.65,36.8,9.98,55.19c-4.82,4.61-10.9,11.48-16.05,20.93c-8.3,15.23-10.05,29.53-10.4,37.74
		c12.75,60.09,25.49,120.17,38.24,180.26c3.3,2.49,23.82,17.42,51.76,12.32c26.94-4.91,40.74-24.78,43.13-28.34
		c-4.28-26.85-8.56-53.7-12.84-80.55c-46-28.84-63.02-61.4-69.85-78.41c-8.53-21.27-11.96-67.3-15.68-98.74
		c-0.41-3.44-1.58-13.57-4.69-26.78c-0.54-2.29-1.09-4.46-1.63-6.5c0,0-1.86-7.01-3.94-13.23
		C168.13,305.53,127.04,294.76,127.04,294.76z"/>
	<path class="st78" d="M180.43,441.19c2.12,1.26,10.02,5.61,20.41,3.84c12.02-2.05,18.4-10.78,19.59-12.47"/>
	<path class="st79" d="M143.74,316.98c-4.97-12.16-9.94-24.31-14.9-36.47c-0.55-1.34-0.25-2.89,0.78-3.91
		c2.23-2.23,5.81-5.1,10.86-6.94c7.68-2.8,14.58-1.69,18.27-0.71c1.23,0.33,2.19,1.28,2.54,2.5c3.42,11.98,6.84,23.97,10.26,35.95
		c0.26,0.92,0.16,1.9-0.31,2.73c-1.58,2.85-5.87,9.06-13.82,10.49c-5.29,0.96-9.66-0.66-11.94-1.78
		C144.68,318.46,144.07,317.79,143.74,316.98z"/>
	<path class="st80" d="M144.46,318.09c0.93-1.58,4.33-6.93,11.33-9.54c7.66-2.86,14.29-0.45,15.87,0.17"/>
	<path class="st81" d="M277.65,486.74c-8.13,6.01-19.96,13.43-35.44,19.1c-17.97,6.59-33.92,8.28-44.85,8.58
		c6.99,36.62,13.98,73.24,20.97,109.86c6.55,1.87,27.03,6.79,49.63-2.72c14.89-6.26,24.12-16.02,28.62-21.54
		C290.27,562.26,283.96,524.5,277.65,486.74z"/>
	<path class="st82" d="M204.57,354.42c-2.36,2.18-8.04,6.84-17.13,9c-10.83,2.57-19.75-0.02-22.84-1.06"/>
</g>
<g id="Layer_14" class="st0">
	<path class="st76" d="M337.82,693.72c5.04,7.19,18.87,24.04,43.05,29.65c32.1,7.46,57.36-10.74,64.88-16.99
		c1.36-1.14,2.27-2.71,2.56-4.47c9.9-59.78,19.81-119.57,29.71-179.35c0.05-0.34,0.09-0.67,0.09-1.03
		c0.18-7.63-0.54-21.39-7.46-36.64c-5.4-11.89-12.54-20.25-17.89-25.48c-1.65-1.62-2.46-3.9-2.16-6.2
		c1.78-14.04,3.56-28.1,5.33-42.15c0.21-1.63,0.96-3.16,2.13-4.31c0.21-0.2,0.41-0.41,0.61-0.61c1.26-1.24,2.02-2.88,2.17-4.64
		c0.23-2.87,0.58-5.91,1.06-9.09c0.68-4.42,1.56-8.54,2.52-12.29c0.73-2.85-0.32-5.84-2.64-7.64c-1.25-0.97-2.7-1.97-4.34-2.94
		c-2.44-1.44-5.31-2.8-8.63-3.81c-6.6-2.02-12.74-2.03-17.79-1.3c-2.96,0.43-5.55,1.12-7.63,1.8c-2.73,0.9-4.69,3.34-4.98,6.21
		c-0.4,3.95-0.99,8.14-1.82,12.54c-0.53,2.88-1.14,5.63-1.79,8.24c-0.42,1.73-0.2,3.54,0.61,5.12c0.24,0.46,0.48,0.92,0.71,1.38
		c0.72,1.38,0.97,2.96,0.74,4.5c-2.14,13.87-4.29,27.75-6.44,41.63c-0.39,2.55-2.08,4.71-4.47,5.69
		c-6.15,2.49-13.78,6.44-21.36,12.81c-16.17,13.55-22.73,30.08-25.3,38.2c-0.13,0.43-0.22,0.86-0.28,1.31
		c-7.48,61.6-14.97,123.19-22.45,184.79C336.34,690.44,336.78,692.25,337.82,693.72z"/>
	<path class="st77" d="M496.92,308.27c27.11-8.42,66.2,1.29,71.51,22.3c4.66,18.48-17,44.89-34.66,44.57
		c-13.33-0.24-15.58-15.55-33.9-18.8c-14.37-2.55-31.99,3.5-39.53,15.08c0,0-7.44,28.47-7.44,28.47l0,0c0,0-1.29,1.72-4.05,5.38
		c-2.5,18.53-5.01,37.06-7.51,55.59c5.02,4.39,11.4,10.98,16.97,20.2c8.97,14.84,11.35,29.06,12.07,37.24
		c-10.05,60.59-20.11,121.19-30.16,181.78c-3.19,2.63-23.01,18.46-51.16,14.62c-27.13-3.71-41.81-22.94-44.35-26.39
		c3.08-27.01,6.15-54.03,9.23-81.04c44.67-30.87,60.22-64.15,66.28-81.45c7.57-21.63,8.95-67.77,11.26-99.34
		c0.25-3.46,0.97-13.62,3.49-26.96c0.44-2.31,0.89-4.5,1.34-6.57c0,0,1.55-7.08,3.35-13.39
		C456.35,320.86,496.92,308.27,496.92,308.27z"/>
	<path class="st78" d="M450.11,456.94c-2.06,1.35-9.76,6.05-20.21,4.74c-12.1-1.51-18.86-9.95-20.13-11.59"/>
	<path class="st79" d="M481.23,331.22c4.42-12.37,8.84-24.73,13.26-37.1c0.49-1.37,0.12-2.89-0.95-3.87
		c-2.33-2.12-6.03-4.83-11.16-6.45c-7.8-2.46-14.65-1.04-18.28,0.11c-1.21,0.38-2.13,1.37-2.42,2.61
		c-2.88,12.12-5.76,24.25-8.64,36.37c-0.22,0.93-0.07,1.9,0.43,2.72c1.71,2.77,6.27,8.78,14.28,9.86c5.33,0.72,9.63-1.09,11.85-2.31
		C480.35,332.73,480.93,332.04,481.23,331.22z"/>
	<path class="st80" d="M480.56,332.36c-1-1.54-4.64-6.73-11.75-9.02c-7.78-2.52-14.3,0.19-15.85,0.88"/>
	<path class="st81" d="M355.02,506.78c8.39,5.64,20.54,12.53,36.25,17.5c18.25,5.78,34.25,6.76,45.19,6.57
		c-5.35,36.89-10.7,73.79-16.04,110.68c-6.46,2.16-26.7,7.99-49.7-0.5c-15.16-5.59-24.81-14.92-29.55-20.25
		C345.79,582.79,350.41,544.79,355.02,506.78z"/>
	<path class="st82" d="M422.13,371.33c2.45,2.07,8.34,6.48,17.52,8.23c10.93,2.08,19.73-0.9,22.77-2.08"/>
</g>
</svg>
