<?xml version="1.0" encoding="UTF-8"?><svg id="a" xmlns="http://www.w3.org/2000/svg" viewBox="0 0 1334 700.03"><defs><style>.b{fill:#fff;}.c{fill:#ee9783;}.d{fill:#6c1344;}.e{fill:#dc6c64;}.f{fill:#a44a7b;}</style></defs><path class="b" d="M633,188c-5.74,16.57-11.44,40.04-10.62,68.19,1.98,67.36,39.94,113.62,53.62,128.81-.78,15.56-4.85,46.67-28.33,67.17-2.48,2.17-5.05,4.1-7.67,5.83-41.99-59.43-53.98-112.73-58-144-7.42-57.7-.27-137.99,24-143,9.5-1.96,19.71,8,27,17Z"/><path class="c" d="M899,312c4.64-2.13,12.29,5.35,15,8,40.08,39.19,37.02,180.08,27,183-.45,.13-7.46,1.89-13.54,1.89h0s-4.95-.36-9.16-3.62c-7-5.42-7.31-32-7.31-32-.32-23.25-9.48-21.3-14.98-51.27-5.58-30.42,4.27-30.13,.71-76.36-1.07-13.91-2.99-27.22,2.29-29.64Z"/><path class="e" d="M772.24,386.91c24.62-44.78,70.64-61.8,83.22-66.25,16.81-5.95,41.79-14.79,51.96-3.83,7.97,8.59,2.94,25.15,1.51,29.87-2.39,7.88-8.09,20.62-43.65,46.42-44.33,32.16-65.53,34.34-74.56,34.4-6.59,.05-19.71,0-25.37-7.36-6.72-8.73,1.92-24.18,6.91-33.26Z"/><path class="f" d="M681.51,195.28c2.74-3.95,8.74-6.1,20.76-5.1,25.75,2.14,40.62,15.55,59.35,23.9,34.33,15.31,90.19,17.43,114.79-7.07,6.12-6.1,13.19-16.72,25.12-17.35,7.32-.39,16.26,3,18.5,9.04,4.54,12.24-20.17,30.93-23.28,33.28-34.85,26.35-79.59,24.26-109.95,22.84-18.73-.88-33.11-3.41-45.41-6.61-20.84-5.43-49.56-13.3-58.93-34.94-1.08-2.49-5.16-11.91-.95-17.97Z"/><path class="b" d="M846,208c-.55,3.09-1.96,8.55-6,14-6,8.09-13.98,11.05-17,12-20.33-14.67-40.67-29.33-61-44,4.71-6.06,9.42-12.11,14.13-18.17,.94-1.21,1.88-2.42,2.82-3.63,3.69-4.73,7.37-9.47,11.05-14.2,18.67,18,37.33,36,56,54Z"/><path class="c" d="M776.54,166.03c-.95,1.19-1.89,2.38-2.83,3.57-1.21-1.1-2.41-2.21-3.62-3.32-7.36-6.76-14.73-13.52-22.09-20.28,.04-.3,.21-1.21,1-2,.21-.21,.9-.84,2-1,7.31,6.59,14.63,13.19,21.94,19.78,1.2,1.08,2.4,2.17,3.6,3.25Z"/><path class="c" d="M812,198c-1,1.33-2,2.67-3,4-10.95-10.06-21.91-20.12-32.87-30.17,.94-1.21,1.88-2.42,2.82-3.63,11.02,9.93,22.04,19.87,33.05,29.8Z"/><path class="d" d="M782,200c4.5,.47,16.02,1.04,27-6,3.99-2.56,6.92-5.48,9-8,8,7.33,16,14.67,24,22-.59,2.79-2.22,8.54-7,14-4.01,4.58-8.45,6.9-11,8l-42-30Z"/><path class="d" d="M675.42,153.17c3.08-9.06,12.27-9.99,16.97-21.24,1.63-3.89,2.04-7.42,2.16-9.61,22.92,17.85,27.3,26.6,25.37,31.13-2.2,5.14-12.36,4.56-14.8,11.64-2.16,6.25,4.5,11.13,2.32,14.45-3.1,4.73-21.48,3.16-29.11-8.3-.32-.48-5.93-9.16-2.9-18.06Z"/><path class="f" d="M736.83,165.44c16-3.77,22.6-23.9,25.48-32.71,3.14-9.6,11.9-36.31-5.06-52.83-12.77-12.43-34.61-13.74-49.74-4.29-20.23,12.64-21.5,40.17-14.79,57.71,6.89,18.02,26.35,36.3,44.11,32.12Z"/><path class="d" d="M710.04,176.68c-4.94-19.05-7.19-29.57-14.69-31.96-16.25-5.18-45.08,28.51-57.69,60.52-19.68,49.98-1.06,99.11,5.65,116.08,27.9,70.59,100.29,136.2,141.66,119.69,11.84-4.72,23.33-17,25.58-31.54,6.82-44.09-87.39-55.47-93.78-124.33-2.52-27.24,6.64-56.89-6.74-108.45Z"/><path class="e" d="M666.25,190.35c-3.82,40.25,39.44,111.75,90.75,104.65,45.25-6.26,62.8-68.97,65.01-76.85,2.51-8.97,11.38-40.67-3.01-52.15-4.41-3.52-11.7-5.69-17-3-9.64,4.88-4.8,21.81-10.14,43.24-5.7,22.9-23.1,51.3-41.87,51.63-17.29,.3-31.28-23.29-33.99-27.87-10.82-18.24-6.69-30.27-21.28-49.58-3.86-5.11-11.74-15.55-18.42-13.9-7.98,1.97-9.69,20.06-10.05,23.83Z"/><path class="e" d="M666.25,190.35c-3.82,40.25,39.44,111.75,90.75,104.65,45.25-6.26,62.8-68.97,65.01-76.85,2.51-8.97,11.38-40.67-3.01-52.15-4.41-3.52-11.7-5.69-17-3-9.64,4.88-4.8,21.81-10.14,43.24-5.7,22.9-23.1,51.3-41.87,51.63-17.29,.3-31.28-23.29-33.99-27.87-10.82-18.24-6.69-30.27-21.28-49.58-3.86-5.11-11.74-15.55-18.42-13.9-7.98,1.97-9.69,20.06-10.05,23.83Z"/><path class="f" d="M754.38,433.33c2.99-13.9,11.61-23.35,20.08-30.41,17.08-14.21,88.01-73.24,137.65-48.02,3.33,1.69,17.3,8.79,17.54,18.74,.29,11.72-19.41,16.2-40.93,30.83-44.31,30.12-38.38,63.54-75.72,76.53-5.65,1.97-27.69,9.63-44-2-14.32-10.21-17.84-30.75-14.62-45.67Z"/><path class="d" d="M874.44,381.72c.1,21.37,33.3,46.69,40.39,51.99,14.43,10.78,13.09,7.67,19.99,13.67,30.72,26.69,23.38,60.9,46.7,68.29,1.82,.58,17.21,5.27,23.7-1.86,4.08-4.48,5.78-14.9-43.57-97.19-24.73-41.24-41.67-66.17-60.47-65.79-11.43,.23-16.29,5.45-16.29,5.45h0c-2.59,2.98-10.25,11.79-10.45,24.82,0,0,0,.32,0,.62Z"/><path class="b" d="M790,149c-4.49,5.68-8.98,11.35-13.46,17.03-.95,1.19-1.89,2.38-2.83,3.57-5.9,7.47-11.81,14.94-17.71,22.4-.67-2-1.33-4-2-6,5.36-6.58,10.72-13.15,16.09-19.72,.95-1.17,1.9-2.33,2.85-3.5,4.02-4.93,8.04-9.85,12.06-14.78,1.67,.33,3.33,.67,5,1Z"/><path class="c" d="M600.43,422.36c9.25-18.41,19.55-18.54,58.63-47.02,41.3-30.11,54.71-48.13,66.87-42.43,7.72,3.63,9.54,14.27,12.18,29.82,8.34,48.93-10.42,90.26-14.58,99.03-10.93,23.03-18.59,39.17-35.97,48.66-28.99,15.82-73.71,6.98-89.52-26.09-13.74-28.74,1.66-60.53,2.38-61.97Zm84.12-39.88c1.49,8.09,8.94,13.96,16.57,14.62,10.51,.91,19.76-8.24,24.03-17.15,7.07-14.76,2.92-33.96-5.32-37.4-12.16-5.06-38.58,21.97-35.28,39.93Z"/><path class="b" d="M838.9,474c-4.23-20.3-16.07-23.41-51.17-62-37.1-40.79-46.27-61.93-62.28-60-10.17,1.23-15.99,10.89-24.47,25-26.72,44.41-19.53,89.4-17.8,99,4.55,25.21,7.74,42.88,24.47,57,27.9,23.55,82.56,28.06,112.34,1,25.89-23.52,19.24-58.41,18.91-60Zm-83.06-62.56c-4.54,7.31-15.19,10.77-24.22,9.18-12.44-2.18-19.91-13.62-21.71-23.38-2.99-16.17,8.5-33.35,19.21-34.25,15.79-1.32,36.81,32.22,26.72,48.45Z"/></svg>