<?xml version="1.0" encoding="utf-8"?>
<!-- Generator: Adobe Illustrator 26.1.0, SVG Export Plug-In . SVG Version: 6.00 Build 0)  -->
<svg version="1.1" xmlns="http://www.w3.org/2000/svg" xmlns:xlink="http://www.w3.org/1999/xlink" x="0px" y="0px"
	 viewBox="0 0 612 792" style="enable-background:new 0 0 612 792;" xml:space="preserve">
<style type="text/css">
	.st0{fill:#6D1344;stroke:#6D1344;stroke-width:23;stroke-linecap:round;stroke-linejoin:round;stroke-miterlimit:10;}
	.st1{fill:none;}
	.st2{font-family:'Decoy-Regular';}
	.st3{font-size:107px;}
	.st4{fill:#ED9683;}
	.st5{fill:#FBE7B8;}
	.st6{fill:#6D1344;}
</style>
<g id="Layer_24">
	<path class="st0" d="M335.89,420.52"/>
	<path class="st0" d="M470.2,427.61c0.02,0.02,0.03,0.04,0.04,0.06c0.06,0.2-0.23,0.5-0.87,0.9c-7.84,4.88-66.94,24.23-139.33,45.46
		c-78.34,22.99-142.58,39.49-143.49,36.87c-0.9-2.62,61.87-23.37,140.2-46.35c4.49-1.32,8.94-2.62,13.33-3.89
		c2.2-0.63,4.38-1.26,6.55-1.89c6.77-1.95,13.4-3.85,19.84-5.67c0.77-0.21,1.53-0.43,2.3-0.64c2.04-0.58,4.07-1.15,6.07-1.71
		c1-0.28,2-0.55,2.99-0.84c0.23-0.06,0.45-0.12,0.66-0.19c1.76-0.49,3.5-0.98,5.24-1.45c2.91-0.81,5.78-1.6,8.59-2.37
		c1.87-0.51,3.72-1.02,5.55-1.52c0.72-0.19,1.45-0.39,2.16-0.59c2.89-0.79,5.72-1.55,8.48-2.29c0.03-0.01,0.06-0.02,0.09-0.03
		c1.69-0.45,3.35-0.89,4.99-1.33c2.49-0.67,4.92-1.31,7.3-1.92c1.2-0.31,2.38-0.62,3.56-0.93c2.13-0.56,4.2-1.08,6.21-1.6
		c0.73-0.19,1.44-0.37,2.15-0.54c2.28-0.58,4.48-1.13,6.58-1.65c0.67-0.16,1.33-0.33,1.97-0.48c3.8-0.93,7.26-1.75,10.38-2.46
		c0.28-0.07,0.56-0.13,0.83-0.19c0.28-0.07,0.55-0.13,0.82-0.19c0.54-0.11,1.06-0.24,1.58-0.35c2.06-0.45,3.93-0.85,5.59-1.18
		c0.42-0.08,0.82-0.16,1.21-0.24c0.59-0.11,1.15-0.22,1.68-0.31c0.35-0.06,0.69-0.12,1.02-0.18c0.34-0.05,0.67-0.11,0.98-0.16
		c0.27-0.04,0.54-0.08,0.79-0.12c0.26-0.04,0.5-0.07,0.73-0.09c0.11-0.01,0.2-0.03,0.3-0.04c0.56-0.06,1.04-0.1,1.45-0.12
		c0.06-0.01,0.11-0.01,0.16-0.01c0.09,0,0.16-0.01,0.23,0c0.23,0,0.42,0.01,0.58,0.03c0.04,0.01,0.1,0.01,0.13,0.02
		c0.05,0.01,0.09,0.02,0.13,0.03c0.07,0.02,0.13,0.05,0.16,0.07C470.15,427.57,470.18,427.59,470.2,427.61z"/>
	<path class="st0" d="M484.49,379.23l-0.81,2.74c-15.85,13.73-21.76,31.91-14.95,45.43c-0.41,0.03-0.89,0.06-1.44,0.12
		c-0.1,0.01-0.19,0.03-0.31,0.04c-0.23,0.03-0.46,0.06-0.73,0.09c-0.24,0.04-0.51,0.08-0.79,0.12c-0.32,0.05-0.64,0.11-0.98,0.15
		c-0.32,0.06-0.66,0.12-1.02,0.18c-0.52,0.09-1.08,0.2-1.67,0.31c-0.39,0.08-0.8,0.15-1.22,0.24c-1.67,0.33-3.53,0.72-5.58,1.17
		c-0.52,0.12-1.05,0.24-1.58,0.35c-0.27,0.06-0.54,0.12-0.82,0.19c-0.27,0.06-0.55,0.12-0.83,0.19c-3.11,0.71-6.58,1.53-10.37,2.46
		c-0.65,0.16-1.31,0.32-1.98,0.48c-2.11,0.53-4.3,1.08-6.58,1.66c-0.72,0.18-1.43,0.36-2.16,0.54c-2.01,0.52-4.08,1.04-6.2,1.59
		c-1.17,0.31-2.35,0.62-3.56,0.92c-2.37,0.62-4.81,1.26-7.3,1.93c-1.65,0.44-3.31,0.87-4.99,1.33l-0.1,0.02
		c-2.76,0.74-5.58,1.51-8.48,2.29c-0.71,0.2-1.43,0.4-2.16,0.59c-1.82,0.5-3.68,1.01-5.56,1.52c-2.81,0.77-5.68,1.56-8.59,2.38
		c-1.73,0.47-3.47,0.96-5.23,1.45c-0.22,0.07-0.43,0.13-0.67,0.19c-0.98,0.28-1.99,0.56-2.98,0.84c-2.01,0.56-4.03,1.13-6.08,1.71
		c-0.77,0.21-1.52,0.43-2.29,0.64c-6.45,1.83-13.07,3.72-19.85,5.68c-2.16,0.62-4.34,1.25-6.54,1.89
		c-4.39,1.26-8.84,2.57-13.33,3.88c-78.21,22.95-140.92,43.67-140.2,46.35l-1-0.83c-1.91-14.09-15.97-25.85-35.59-30.04l-2.5-2.12
		c3.16,1.04,50.76-11.27,115.72-29.72c15.13-4.3,31.21-8.93,47.89-13.8c2.16-0.63,4.34-1.27,6.51-1.91c2.28-0.67,4.54-1.34,6.79-2
		c5.53-1.63,10.97-3.23,16.34-4.83C418.35,402.57,478.68,383.11,484.49,379.23z"/>
	<path class="st0" d="M479.56,373.93c0.02,0.02,0.04,0.05,0.04,0.07c0.07,0.23-0.26,0.58-1.01,1.04
		c-9.07,5.63-77.52,27.84-161.36,52.16C226.49,453.53,152.07,472.4,151,469.34c-1.06-3.05,71.64-26.87,162.37-53.19
		c5.2-1.51,10.36-3,15.44-4.45c2.54-0.72,5.07-1.45,7.58-2.16c7.84-2.24,15.52-4.41,22.98-6.5c0.89-0.24,1.77-0.49,2.67-0.74
		c2.36-0.66,4.71-1.31,7.04-1.96c1.16-0.32,2.32-0.63,3.46-0.96c0.27-0.07,0.52-0.14,0.77-0.22c2.04-0.56,4.06-1.12,6.07-1.66
		c3.37-0.93,6.69-1.84,9.95-2.72c2.17-0.59,4.31-1.16,6.43-1.74c0.84-0.22,1.68-0.45,2.5-0.67c3.35-0.9,6.63-1.77,9.83-2.62
		c0.04-0.01,0.07-0.02,0.11-0.03c1.96-0.52,3.88-1.02,5.78-1.52c2.88-0.76,5.7-1.49,8.45-2.2c1.39-0.36,2.76-0.71,4.12-1.06
		c2.47-0.64,4.86-1.23,7.19-1.82c0.85-0.21,1.67-0.42,2.5-0.62c2.64-0.66,5.19-1.29,7.63-1.89c0.78-0.19,1.54-0.38,2.29-0.55
		c4.4-1.06,8.41-2,12.02-2.81c0.32-0.08,0.65-0.14,0.96-0.21c0.32-0.08,0.63-0.15,0.95-0.22c0.62-0.13,1.23-0.27,1.84-0.4
		c2.39-0.52,4.55-0.97,6.48-1.34c0.49-0.09,0.95-0.18,1.41-0.27c0.68-0.13,1.34-0.25,1.94-0.35c0.4-0.07,0.8-0.14,1.18-0.2
		c0.39-0.06,0.77-0.12,1.14-0.18c0.32-0.05,0.62-0.09,0.91-0.13c0.31-0.04,0.58-0.07,0.85-0.11c0.12-0.01,0.24-0.04,0.35-0.04
		c0.65-0.07,1.21-0.11,1.68-0.13c0.07-0.01,0.13-0.01,0.19-0.01c0.1,0,0.19-0.01,0.26,0c0.26,0,0.49,0.02,0.67,0.04
		c0.05,0.01,0.12,0.01,0.15,0.03c0.06,0.01,0.11,0.02,0.15,0.04c0.08,0.02,0.15,0.05,0.18,0.08
		C479.51,373.88,479.54,373.9,479.56,373.93z"/>
	<path class="st0" d="M416.18,391.32c-13.28,3.96-26.57,7.91-39.85,11.87c0.32-3.14,1.08-7.65,3.05-12.65
		c1.54-3.92,5.64-12.72,19.57-23.28c11.32-8.57,30.36-19.23,34.03-15.07c0.73,0.83,1.11,2.53-7.16,19.91
		C421.95,380.24,418.55,386.85,416.18,391.32z"/>
	<path class="st0" d="M430.54,387.62c4.27-9.35,8.54-18.71,12.81-28.06c1.59-1.21,7.29-5.24,14.94-4.43
		c2.21,0.23,9.3,0.98,11.86,6.22c2.34,4.79,0.18,11.84-5.8,16.59C453.08,381.17,441.81,384.4,430.54,387.62z"/>
	<path class="st0" d="M391.86,327.82c-0.17-3.46-0.43-8.8,2.96-11.65c4.89-4.12,14.96-1.03,20.27,4.79
		c5.26,5.76,8.11,16.67,2.28,22.57c-4.22,4.27-11.47,4.37-16.42,1.98C392.53,341.45,392.01,330.81,391.86,327.82z"/>
	<path class="st0" d="M364.48,407.39c-31.61,8.72-63.23,17.45-94.84,26.17c-1.1-2.01-7.55-14.22-1.28-25.9
		c4.41-8.21,12.76-11.8,17.1-13.66C315.71,381.01,358.08,403.85,364.48,407.39z"/>
	<path class="st0" d="M423.74,288.01c-9.35-2.78-9.77,7.4-9.8,8.48c-0.16,7.12,5.41,17.46,13.83,24.64c5.1,4.34,13.55,9.5,18.2,7.69
		c5.24-2.05,4.37-12.44-4.44-24.26C437.49,296.66,429.96,289.86,423.74,288.01z"/>
	<g>
		<rect x="105.92" y="283.44" class="st1" width="290.59" height="83.49"/>
		<text transform="matrix(1 0 0 1 105.9155 363.0455)" class="st0 st2 st3">manj</text>
	</g>
	<path class="st0" d="M334.16,294.89c-3.22-4.02-0.88-10.13,2.39-13.67c1.42-1.53,4.72-5.1,9.19-4.42c2.63,0.4,5.34,2.22,5.98,4.48
		c0.44,1.54-0.27,2.61-4.88,8.32c-5.37,6.66-6.63,7.97-8.53,7.86C336.11,297.33,334.56,295.4,334.16,294.89z"/>
	<path class="st0" d="M369.18,276.02c-5.26,1.97-7.22,8.33-7.13,12.77c0.01,0.5,0.28,7.56,6.28,11.65c3.37,2.3,9.43,4.26,13.86,1.19
		c4.16-2.89,4.34-8.47,4.4-10.05c0.05-1.41-0.04-4.88-2.17-8.34C381.71,278.85,375.27,273.73,369.18,276.02z"/>
</g>
<g id="Layer_8">
	<path class="st4" d="M471.41,430.12c0.02,0.02,0.03,0.04,0.04,0.06c0.06,0.2-0.23,0.5-0.87,0.9
		c-7.84,4.88-66.94,24.23-139.33,45.46c-78.34,22.99-142.58,39.49-143.49,36.87c-0.9-2.62,61.87-23.37,140.2-46.35
		c4.49-1.32,8.94-2.62,13.33-3.89c2.2-0.63,4.38-1.26,6.55-1.89c6.77-1.95,13.4-3.85,19.84-5.67c0.77-0.21,1.53-0.43,2.3-0.64
		c2.04-0.58,4.07-1.15,6.07-1.71c1-0.28,2-0.55,2.99-0.84c0.23-0.06,0.45-0.12,0.66-0.19c1.76-0.49,3.5-0.98,5.24-1.45
		c2.91-0.81,5.78-1.6,8.59-2.37c1.87-0.51,3.72-1.02,5.55-1.52c0.72-0.19,1.45-0.39,2.16-0.59c2.89-0.79,5.72-1.55,8.48-2.29
		c0.03-0.01,0.06-0.02,0.09-0.03c1.69-0.45,3.35-0.89,4.99-1.33c2.49-0.67,4.92-1.31,7.3-1.92c1.2-0.31,2.38-0.62,3.56-0.93
		c2.13-0.56,4.2-1.08,6.21-1.6c0.73-0.19,1.44-0.37,2.15-0.54c2.28-0.58,4.48-1.13,6.58-1.65c0.67-0.16,1.33-0.33,1.97-0.48
		c3.8-0.93,7.26-1.75,10.38-2.46c0.28-0.07,0.56-0.13,0.83-0.19c0.28-0.07,0.55-0.13,0.82-0.19c0.54-0.11,1.06-0.24,1.58-0.35
		c2.06-0.45,3.93-0.85,5.59-1.18c0.42-0.08,0.82-0.16,1.21-0.24c0.59-0.11,1.15-0.22,1.68-0.31c0.35-0.06,0.69-0.12,1.02-0.18
		c0.34-0.05,0.67-0.11,0.98-0.16c0.27-0.04,0.54-0.08,0.79-0.12c0.26-0.04,0.5-0.07,0.73-0.09c0.11-0.01,0.2-0.03,0.3-0.04
		c0.56-0.06,1.04-0.1,1.45-0.12c0.06-0.01,0.11-0.01,0.16-0.01c0.09,0,0.16-0.01,0.23,0c0.23,0,0.42,0.01,0.58,0.03
		c0.04,0.01,0.1,0.01,0.13,0.02c0.05,0.01,0.09,0.02,0.13,0.03c0.07,0.02,0.13,0.05,0.16,0.07
		C471.36,430.08,471.39,430.09,471.41,430.12z"/>
	<path class="st4" d="M486.69,381.74l-0.81,2.74c-15.85,13.73-21.76,31.91-14.95,45.43c-0.41,0.03-0.89,0.06-1.44,0.12
		c-0.1,0.01-0.19,0.03-0.31,0.04c-0.23,0.03-0.46,0.06-0.73,0.09c-0.24,0.04-0.51,0.08-0.79,0.12c-0.32,0.05-0.64,0.11-0.98,0.15
		c-0.32,0.06-0.66,0.12-1.02,0.18c-0.52,0.09-1.08,0.2-1.67,0.31c-0.39,0.08-0.8,0.15-1.22,0.24c-1.67,0.33-3.53,0.72-5.58,1.17
		c-0.52,0.12-1.05,0.24-1.58,0.35c-0.27,0.06-0.54,0.12-0.82,0.19c-0.27,0.06-0.55,0.12-0.83,0.19c-3.11,0.71-6.58,1.53-10.37,2.46
		c-0.65,0.16-1.31,0.32-1.98,0.48c-2.11,0.53-4.3,1.08-6.58,1.66c-0.72,0.18-1.43,0.36-2.16,0.54c-2.01,0.52-4.08,1.04-6.2,1.59
		c-1.17,0.31-2.35,0.62-3.56,0.92c-2.37,0.62-4.81,1.26-7.3,1.93c-1.65,0.44-3.31,0.87-4.99,1.33l-0.1,0.02
		c-2.76,0.74-5.58,1.51-8.48,2.29c-0.71,0.2-1.43,0.4-2.16,0.59c-1.82,0.5-3.68,1.01-5.56,1.52c-2.81,0.77-5.68,1.56-8.59,2.38
		c-1.73,0.47-3.47,0.96-5.23,1.45c-0.22,0.07-0.43,0.13-0.67,0.19c-0.98,0.28-1.99,0.56-2.98,0.84c-2.01,0.56-4.03,1.13-6.08,1.71
		c-0.77,0.21-1.52,0.43-2.29,0.64c-6.45,1.83-13.07,3.72-19.85,5.68c-2.16,0.62-4.34,1.25-6.54,1.89
		c-4.39,1.26-8.84,2.57-13.33,3.88c-78.21,22.95-140.92,43.67-140.2,46.35l-1-0.83c-1.91-14.09-15.97-25.85-35.59-30.04l-2.5-2.12
		c3.16,1.04,50.76-11.27,115.72-29.72c15.13-4.3,31.21-8.93,47.89-13.8c2.16-0.63,4.34-1.27,6.51-1.91c2.28-0.67,4.54-1.34,6.79-2
		c5.53-1.63,10.97-3.23,16.34-4.83C420.56,405.08,480.89,385.62,486.69,381.74z"/>
	<path class="st5" d="M480.77,373.44c0.02,0.02,0.04,0.05,0.04,0.07c0.07,0.23-0.26,0.58-1.01,1.04
		c-9.07,5.63-77.52,27.84-161.36,52.16c-90.74,26.33-165.16,45.19-166.23,42.14c-1.06-3.05,71.64-26.87,162.37-53.19
		c5.2-1.51,10.36-3,15.44-4.45c2.54-0.72,5.07-1.45,7.58-2.16c7.84-2.24,15.52-4.41,22.98-6.5c0.89-0.24,1.77-0.49,2.67-0.74
		c2.36-0.66,4.71-1.31,7.04-1.96c1.16-0.32,2.32-0.63,3.46-0.96c0.27-0.07,0.52-0.14,0.77-0.22c2.04-0.56,4.06-1.12,6.07-1.66
		c3.37-0.93,6.69-1.84,9.95-2.72c2.17-0.59,4.31-1.16,6.43-1.74c0.84-0.22,1.68-0.45,2.5-0.67c3.35-0.9,6.63-1.77,9.83-2.62
		c0.04-0.01,0.07-0.02,0.11-0.03c1.96-0.52,3.88-1.02,5.78-1.52c2.88-0.76,5.7-1.49,8.45-2.2c1.39-0.36,2.76-0.71,4.12-1.06
		c2.47-0.64,4.86-1.23,7.19-1.82c0.85-0.21,1.67-0.42,2.5-0.62c2.64-0.66,5.19-1.29,7.63-1.89c0.78-0.19,1.54-0.38,2.29-0.55
		c4.4-1.06,8.41-2,12.02-2.81c0.32-0.08,0.65-0.14,0.96-0.21c0.32-0.08,0.63-0.15,0.95-0.22c0.62-0.13,1.23-0.27,1.84-0.4
		c2.39-0.52,4.55-0.97,6.48-1.34c0.49-0.09,0.95-0.18,1.41-0.27c0.68-0.13,1.34-0.25,1.94-0.35c0.4-0.07,0.8-0.14,1.18-0.2
		c0.39-0.06,0.77-0.12,1.14-0.18c0.32-0.05,0.62-0.09,0.91-0.13c0.31-0.04,0.58-0.07,0.85-0.11c0.12-0.01,0.24-0.04,0.35-0.04
		c0.65-0.07,1.21-0.11,1.68-0.13c0.07-0.01,0.13-0.01,0.19-0.01c0.1,0,0.19-0.01,0.26,0c0.26,0,0.49,0.02,0.67,0.04
		c0.05,0.01,0.12,0.01,0.15,0.03c0.06,0.01,0.11,0.02,0.15,0.04c0.08,0.02,0.15,0.05,0.18,0.08
		C480.72,373.39,480.75,373.41,480.77,373.44z"/>
</g>
<g id="Layer_22">
	<path class="st4" d="M417.39,390.83c-13.28,3.96-26.57,7.91-39.85,11.87c0.32-3.14,1.08-7.65,3.05-12.65
		c1.54-3.92,5.64-12.72,19.57-23.28c11.32-8.57,30.36-19.23,34.03-15.07c0.73,0.83,1.11,2.53-7.16,19.91
		C423.16,379.75,419.75,386.36,417.39,390.83z"/>
	<path class="st4" d="M431.75,387.13c4.27-9.35,8.54-18.71,12.81-28.06c1.59-1.21,7.29-5.24,14.94-4.43
		c2.21,0.23,9.3,0.98,11.86,6.22c2.34,4.79,0.18,11.84-5.8,16.59C454.29,380.68,443.02,383.91,431.75,387.13z"/>
	<path class="st4" d="M393.07,327.33c-0.17-3.46-0.43-8.8,2.96-11.65c4.89-4.12,14.96-1.03,20.27,4.79
		c5.26,5.76,8.11,16.67,2.28,22.57c-4.22,4.27-11.47,4.37-16.42,1.98C393.74,340.96,393.22,330.32,393.07,327.33z"/>
	<path class="st4" d="M365.69,406.89c-31.61,8.72-63.23,17.45-94.84,26.17c-1.1-2.01-7.55-14.22-1.28-25.9
		c4.41-8.21,12.76-11.8,17.1-13.66C316.92,380.52,359.29,403.35,365.69,406.89z"/>
	<path class="st4" d="M424.95,287.52c-9.35-2.78-9.77,7.4-9.8,8.48c-0.16,7.12,5.41,17.46,13.83,24.64c5.1,4.34,13.55,9.5,18.2,7.69
		c5.24-2.05,4.37-12.44-4.44-24.26C438.7,296.17,431.17,289.37,424.95,287.52z"/>
</g>
<g id="Layer_13">
	<rect x="105.12" y="282.95" class="st1" width="290.59" height="83.49"/>
	<text transform="matrix(1 0 0 1 105.1249 362.5541)" class="st5 st2 st3">manj</text>
</g>
<g id="Layer_25">
	
		<ellipse transform="matrix(0.0728 -0.9973 0.9973 0.0728 32.348 616.8447)" class="st6" cx="347.92" cy="291.03" rx="11.78" ry="13.99"/>
</g>
<g id="Layer_23">
	<path class="st4" d="M335.97,293.98c-3.22-4.02-0.88-10.13,2.39-13.67c1.42-1.53,4.72-5.1,9.19-4.42c2.63,0.4,5.34,2.22,5.98,4.48
		c0.44,1.54-0.27,2.61-4.88,8.32c-5.37,6.66-6.63,7.97-8.53,7.86C337.93,296.42,336.38,294.49,335.97,293.98z"/>
	<path class="st4" d="M365.73,277.68c-4.26,3.67-3.9,10.31-2.28,14.45c0.18,0.46,2.87,7,9.92,8.77c3.95,0.99,10.32,0.75,13.41-3.67
		c2.9-4.15,1.15-9.45,0.66-10.95c-0.44-1.34-1.72-4.57-4.92-7.08C378.46,276.01,370.65,273.43,365.73,277.68z"/>
</g>
</svg>
