<?xml version="1.0" encoding="utf-8"?>
<!-- Generator: Adobe Illustrator 26.1.0, SVG Export Plug-In . SVG Version: 6.00 Build 0)  -->
<svg version="1.1" xmlns="http://www.w3.org/2000/svg" xmlns:xlink="http://www.w3.org/1999/xlink" x="0px" y="0px"
	 viewBox="0 0 612 1008" style="enable-background:new 0 0 612 1008;" xml:space="preserve">
<style type="text/css">
	.st0{display:none;}
	.st1{display:inline;}
	.st2{fill:#6D1344;}
	.st3{fill:#DA6B63;}
	.st4{fill:#FBE7B8;}
	.st5{fill:#F1E1D7;}
	.st6{fill:#BF4B84;}
	.st7{fill:#ED9784;}
	.st8{fill:none;}
	.st9{fill:#231F20;}
	.st10{font-family:'MyriadPro-Regular';}
	.st11{font-size:14.5052px;}
	.st12{display:inline;fill:#6C1344;stroke:#EE9884;stroke-width:6;stroke-miterlimit:10;}
	.st13{display:inline;fill:#FCE7B8;}
	.st14{font-family:'Decoy-Regular';}
	.st15{font-size:39px;}
	.st16{display:inline;fill:#EE9884;stroke:#DC6C64;stroke-width:6;}
	.st17{font-size:45px;}
	.st18{display:inline;fill:#DC6C64;stroke:#A54B7C;stroke-width:6;}
	.st19{display:inline;fill:#DC6C64;stroke:#6C1344;stroke-width:6;}
	.st20{display:inline;fill:#FCE7B8;stroke:#DC6C64;stroke-width:6;}
	.st21{display:inline;fill:#6C1344;}
	.st22{display:inline;fill:#6C1344;stroke:#A54B7C;stroke-width:6;}
	.st23{fill:#EE9884;}
	.st24{display:inline;fill:#A44A7B;stroke:#EE9884;stroke-width:6;}
	.st25{fill:#FCE7B8;}
	.st26{fill:#6C1344;}
	.st27{letter-spacing:-1;}
	.st28{clip-path:url(#SVGID_00000113345463829214182850000011426697253215495357_);fill:#EE9783;}
	.st29{clip-path:url(#SVGID_00000113345463829214182850000011426697253215495357_);fill:none;stroke:#FCE7B8;stroke-width:6;}
	.st30{display:inline;fill:#EE9783;stroke:#DC6C64;stroke-width:5.7709;}
	.st31{display:inline;fill:#FCB749;}
	.st32{fill:#EE9884;stroke:#6C1344;stroke-width:6;stroke-miterlimit:10;}
	.st33{fill:#DA6B63;stroke:#DA6B63;stroke-width:3;stroke-linecap:round;stroke-linejoin:round;stroke-miterlimit:10;}
	.st34{fill:#DA6B63;stroke:#DA6B63;stroke-width:2;stroke-linecap:round;stroke-linejoin:round;stroke-miterlimit:10;}
	.st35{fill:#FAE6B9;stroke:#FAE6B9;stroke-width:3;stroke-miterlimit:10;}
	.st36{fill:#ED9784;stroke:#ED9784;stroke-width:3;stroke-linecap:round;stroke-linejoin:round;stroke-miterlimit:10;}
	.st37{fill:#FAE6B9;stroke:#FAE6B9;stroke-width:0.75;stroke-linecap:round;stroke-linejoin:round;stroke-miterlimit:10;}
	.st38{fill:#FAE6B9;stroke:#FAE6B9;stroke-width:2;stroke-linecap:round;stroke-linejoin:round;stroke-miterlimit:10;}
	.st39{fill:#ED9784;stroke:#ED9784;stroke-linecap:round;stroke-linejoin:round;stroke-miterlimit:10;}
	.st40{fill:none;stroke:#6C1344;stroke-width:6;stroke-miterlimit:10;}
	.st41{clip-path:url(#SVGID_00000078750478659083874540000015791229739485870981_);fill:#FCE7B8;}
	.st42{clip-path:url(#SVGID_00000078750478659083874540000015791229739485870981_);fill:none;stroke:#DC6C64;stroke-width:8.1855;}
	.st43{fill:#EE9783;}
	.st44{font-size:59.1176px;}
	.st45{letter-spacing:-5;}
	.st46{letter-spacing:-2;}
</style>
<g id="Layer_10" class="st0">
	<g class="st1">
		<rect x="168.09" y="863.14" class="st2" width="79.41" height="98.04"/>
		<rect x="326.38" y="863.14" class="st3" width="72.24" height="98.04"/>
		<rect x="470.78" y="863.14" class="st4" width="79.41" height="98.04"/>
		<rect x="88.68" y="863.14" class="st5" width="79.41" height="98.04"/>
		<rect x="246.87" y="863.14" class="st6" width="79.41" height="98.04"/>
		<rect x="398.54" y="863.14" class="st7" width="72.24" height="98.04"/>
		<rect x="98.88" y="965.67" class="st8" width="56.95" height="21.35"/>
		<text transform="matrix(1 0 0 1 98.8791 975.9685)" class="st9 st10 st11">#F3E2D9</text>
		<rect x="177.66" y="966.12" class="st8" width="57.41" height="13.87"/>
		<text transform="matrix(1 0 0 1 177.6579 976.4197)" class="st9 st10 st11">#6D1344</text>
		<rect x="256.91" y="966.72" class="st8" width="57.41" height="13.87"/>
		<text transform="matrix(1 0 0 1 256.9059 977.0222)" class="st9 st10 st11">#BD4A84</text>
		<rect x="331.07" y="966.72" class="st8" width="57.41" height="13.87"/>
		<text transform="matrix(1 0 0 1 331.0666 977.0222)" class="st9 st10 st11">#DB6B63</text>
		<rect x="405.23" y="969.03" class="st8" width="57.41" height="13.87"/>
		<text transform="matrix(1 0 0 1 405.2277 979.3328)" class="st9 st10 st11">#ED9783</text>
		<rect x="484.33" y="969.03" class="st8" width="57.41" height="13.87"/>
		<text transform="matrix(1 0 0 1 484.3341 979.3328)" class="st9 st10 st11">#FBE7B9</text>
	</g>
</g>
<g id="map" class="st0">
	<path class="st12" d="M154.31,102.18H68.93c-18.14,0-32.98-14.84-32.98-32.98v0c0-18.14,14.84-32.98,32.98-32.98h85.39
		c18.14,0,32.98,14.84,32.98,32.98v0C187.29,87.34,172.45,102.18,154.31,102.18z"/>
	<text transform="matrix(1 0 0 1 70.2821 83.8298)" class="st13 st14 st15">MAP</text>
</g>
<g id="friends" class="st0">
	<path class="st16" d="M235.89,501.14H104.82c-18.14,0-32.98-14.84-32.98-32.98v0c0-18.14,14.84-32.98,32.98-32.98h131.07
		c18.14,0,32.98,14.84,32.98,32.98v0C268.87,486.3,254.03,501.14,235.89,501.14z"/>
	<text transform="matrix(1 0 0 1 95.45 482.2148)" class="st13 st14 st17">friends</text>
</g>
<g id="star_list_v1" class="st0">
	<path class="st18" d="M478.67,379.25H342.42c-20.91,0-38.03-17.11-38.03-38.03v0c0-20.91,17.11-38.03,38.03-38.03h136.25
		c20.91,0,38.03,17.11,38.03,38.03v0C516.7,362.14,499.59,379.25,478.67,379.25z"/>
	<polygon class="st13" points="348.52,314.63 355.97,329.73 372.63,332.15 360.58,343.89 363.42,360.48 348.52,352.65 
		333.63,360.48 336.47,343.89 324.42,332.15 341.08,329.73 	"/>
	<text transform="matrix(1 0 0 1 376.2874 357.4493)" class="st13 st14 st17">list</text>
	<polygon class="st13" points="473.63,314.63 481.07,329.73 497.73,332.15 485.68,343.89 488.52,360.48 473.63,352.65 
		458.73,360.48 461.57,343.89 449.52,332.15 466.18,329.73 	"/>
</g>
<g id="star_list_v2" class="st0">
	<path class="st19" d="M439.7,278.09H303.45c-20.91,0-38.03-17.11-38.03-38.03v0c0-20.91,17.11-38.03,38.03-38.03H439.7
		c20.91,0,38.03,17.11,38.03,38.03v0C477.72,260.98,460.61,278.09,439.7,278.09z"/>
	<polygon class="st13" points="309.55,213.47 317,228.56 333.65,230.98 321.6,242.73 324.45,259.32 309.55,251.49 294.65,259.32 
		297.5,242.73 285.45,230.98 302.1,228.56 	"/>
	<text transform="matrix(1 0 0 1 337.3129 256.2866)" class="st13 st14 st17">list</text>
	<polygon class="st13" points="434.65,213.47 442.1,228.56 458.76,230.98 446.7,242.73 449.55,259.32 434.65,251.49 419.75,259.32 
		422.6,242.73 410.55,230.98 427.2,228.56 	"/>
</g>
<g id="filter_by_city" class="st0">
	<path class="st20" d="M508.95,184.73H269.12c-20.91,0-38.03-17.11-38.03-38.03v0c0-20.91,17.11-38.03,38.03-38.03h239.83
		c20.91,0,38.03,17.11,38.03,38.03v0C546.97,167.62,529.86,184.73,508.95,184.73z"/>
	<text transform="matrix(1 0 0 1 261.1604 161.4405)" class="st21 st14 st17">filter by city</text>
</g>
<g id="add_x2B__v1" class="st0">
	<path class="st22" d="M223.91,402.02h-65.3c-20.91,0-38.03-17.11-38.03-38.03v0c0-20.91,17.11-38.03,38.03-38.03h65.3
		c20.91,0,38.03,17.11,38.03,38.03v0C261.93,384.9,244.82,402.02,223.91,402.02z"/>
	<text transform="matrix(1 0 0 1 141.0969 377.6342)" class="st1"><tspan x="0" y="0" class="st23 st14 st17">ad</tspan><tspan x="51.79" y="0" class="st23 st14 st17">d+ </tspan></text>
</g>
<g id="add_x2B__v2" class="st0">
	<path class="st24" d="M173.64,312.45h-62.39c-20.91,0-38.03-17.11-38.03-38.03v0c0-20.91,17.11-38.03,38.03-38.03h62.39
		c20.91,0,38.03,17.11,38.03,38.03v0C211.67,295.34,194.56,312.45,173.64,312.45z"/>
	<text transform="matrix(1 0 0 1 91.1268 288.0648)" class="st1"><tspan x="0" y="0" class="st25 st14 st17">ad</tspan><tspan x="51.79" y="0" class="st25 st14 st17">d+ </tspan></text>
</g>
<g id="edit" class="st0">
	<path class="st16" d="M379.07,480.41h-39.9c-20.91,0-38.03-17.11-38.03-38.03v0c0-20.91,17.11-38.03,38.03-38.03h39.9
		c20.91,0,38.03,17.11,38.03,38.03v0C417.09,463.3,399.98,480.41,379.07,480.41z"/>
	<text transform="matrix(1 0 0 1 317.8162 455.4357)" class="st1"><tspan x="0" y="0" class="st26 st14 st17">e</tspan><tspan x="24.39" y="0" class="st26 st14 st17">d</tspan><tspan x="51.3" y="0" class="st26 st14 st17 st27">i</tspan><tspan x="63.67" y="0" class="st26 st14 st17">t</tspan></text>
</g>
<g id="star">
	<g>
		<defs>
			<rect id="SVGID_1_" x="135.35" y="151.33" width="70" height="66.8"/>
		</defs>
		<clipPath id="SVGID_00000163030679685614589470000002084243261308309434_">
			<use xlink:href="#SVGID_1_"  style="overflow:visible;"/>
		</clipPath>
		<path style="clip-path:url(#SVGID_00000163030679685614589470000002084243261308309434_);fill:#EE9783;" d="M168.75,155.83
			c-15.96,0-28.9,12.94-28.9,28.9s12.94,28.9,28.9,28.9h3.2c15.96,0,28.9-12.94,28.9-28.9s-12.94-28.9-28.9-28.9H168.75z"/>
		
			<path style="clip-path:url(#SVGID_00000163030679685614589470000002084243261308309434_);fill:none;stroke:#FCE7B8;stroke-width:6;" d="
			M168.75,155.83c-15.96,0-28.9,12.94-28.9,28.9s12.94,28.9,28.9,28.9h3.2c15.96,0,28.9-12.94,28.9-28.9s-12.94-28.9-28.9-28.9
			H168.75z"/>
	</g>
	<polygon class="st25" points="170.35,164.32 176.46,176.69 190.11,178.67 180.23,188.3 182.56,201.9 170.35,195.48 158.15,201.9 
		160.48,188.3 150.6,178.67 164.25,176.69 	"/>
</g>
<g id="submit" class="st0">
	<path class="st30" d="M425.24,93.19H304.89c-20.91,0-38.03-17.11-38.03-38.03v0c0-20.91,17.11-38.03,38.03-38.03h120.35
		c20.91,0,38.03,17.11,38.03,38.03v0C463.26,76.08,446.15,93.19,425.24,93.19z"/>
	<text transform="matrix(1 0 0 1 292.5484 67.175)" class="st1"><tspan x="0" y="0" class="st25 st14 st17">s</tspan><tspan x="23.17" y="0" class="st25 st14 st17 st27">u</tspan><tspan x="49.23" y="0" class="st25 st14 st17">b</tspan><tspan x="75.82" y="0" class="st25 st14 st17">m</tspan><tspan x="117.63" y="0" class="st25 st14 st17 st27">i</tspan><tspan x="130" y="0" class="st25 st14 st17">t</tspan></text>
</g>
<g id="follow" class="st0">
	<path class="st31" d="M428.79,561.23"/>
	<g class="st1">
		<path class="st32" d="M463.96,614.21c0,3.61-0.45,7.12-1.29,10.48c-0.4,1.63-0.9,3.21-1.48,4.76c-0.88,2.33-1.95,4.57-3.2,6.69
			c-1.25,2.13-2.68,4.15-4.28,6.03c-0.29,0.35-0.59,0.7-0.9,1.05c-0.53,0.59-1.08,1.17-1.64,1.73c-1.49,1.49-3.09,2.88-4.78,4.14
			c-1.22,0.91-2.48,1.76-3.79,2.54h-0.01c-3.05,1.82-6.33,3.27-9.79,4.3c-1.16,0.35-2.3,0.65-3.5,0.9h-0.03
			c-0.37,0.08-0.75,0.15-1.13,0.22h-0.09c-2.47,0.45-5.02,0.69-7.62,0.69H178.47c-23.94,0-43.53-19.59-43.53-43.53
			c0-4.87,0.81-9.57,2.31-13.95c1.14-3.35,2.68-6.52,4.56-9.46c0,0,0.01,0,0.01-0.01c0.85-1.31,1.76-2.57,2.74-3.78
			c0.88-1.11,1.82-2.16,2.81-3.17c0.12-0.13,0.24-0.25,0.36-0.37c0.11-0.11,0.22-0.22,0.34-0.33c1.87-1.83,3.9-3.5,6.07-4.97
			c0.38-0.26,0.76-0.51,1.14-0.75c2.55-1.62,5.28-2.98,8.15-4.05c1.47-0.54,2.97-1.01,4.51-1.39h0.01c0.64-0.17,1.3-0.32,1.96-0.45
			h0.01c2.76-0.56,5.62-0.85,8.55-0.85h241.96C444.37,570.68,463.96,590.27,463.96,614.21z"/>
		<path class="st3" d="M242.26,657.74c5.51-23.75,15.72-34.82,24.32-40.52c19.1-12.66,37.74-3.8,60.33-17.16
			c13.73-8.12,21.78-20.23,26.48-29.39c-60.24,0.13-120.47,0.27-180.71,0.4c-20.01,3.53-35.18,19.23-37.4,37.73
			c-2.64,22.03,13.55,44.15,37.87,48.59C196.19,657.52,219.22,657.63,242.26,657.74z"/>
		<g>
			<path class="st4" d="M462.72,611.18l-0.05,13.51l-0.01,3.35c-0.49,0.47-0.98,0.94-1.47,1.41c-0.88,2.33-1.95,4.57-3.2,6.69
				c-1.25,2.13-2.68,4.15-4.28,6.03c-0.29,0.35-0.59,0.7-0.9,1.05c-0.53,0.59-1.08,1.17-1.64,1.73c-1.49,1.49-3.09,2.88-4.78,4.14
				c-1.22,0.91-2.48,1.76-3.79,2.54h-0.01c-0.36,1.75-0.72,3.49-1.08,5.24l-8.85-0.03l-3.36-0.01h-0.03l-14.4-0.05l-7.38-0.03
				c-1.53-3.37-2.58-7.03-3.05-10.9c-2.49-20.39,11.88-38.96,32.1-41.48C446.18,603.17,455.43,605.85,462.72,611.18z"/>
			<path class="st33" d="M434.89,637.5c-2.65-7.44-5.3-14.89-7.95-22.33c-2.14,0.8-6.32,2.69-9.88,6.93
				c-5.3,6.32-5.55,13.48-5.55,15.59C419.31,637.63,427.1,637.57,434.89,637.5z"/>
			<path class="st33" d="M412.13,647.98c7.4-0.67,14.81-1.34,22.21-2.01c-0.57,3.7-1.14,7.4-1.72,11.1l-17.64-0.06
				c-0.63-1.32-1.27-2.88-1.82-4.66C412.67,650.76,412.35,649.29,412.13,647.98z"/>
			<path class="st33" d="M443.3,634.01c5.79-5.43,11.59-10.85,17.38-16.28c-1.8-1.62-5.54-4.56-11.15-6.05
				c-5.9-1.57-10.82-0.73-13.19-0.16C438.66,619.01,440.98,626.51,443.3,634.01z"/>
			<path class="st33" d="M446.39,649.09c-1.22,0.91-2.48,1.76-3.79,2.54c0.27-1.35,0.55-2.69,0.83-4.04
				C444.42,648.09,445.4,648.59,446.39,649.09z"/>
			<path class="st33" d="M461.19,629.45c-0.88,2.33-1.95,4.57-3.2,6.69c-1.25,2.13-2.68,4.15-4.28,6.03
				c-0.29,0.35-0.59,0.7-0.9,1.05c-1.32-0.66-2.63-1.31-3.94-1.96C452.97,637.32,457.08,633.39,461.19,629.45z"/>
			<path class="st4" d="M443.59,630.14c3.97-1.53,6.51-4.13,6.32-6.48c-0.01-0.14-0.18-1.97-1.56-2.72
				c-1.19-0.65-2.63-0.16-3.32,0.27C443.05,622.43,442.45,626.03,443.59,630.14z"/>
			<path class="st4" d="M431.77,635.61c-0.65-3.25-2.31-5.54-4.14-5.72c-0.11-0.01-1.54-0.13-2.3,0.82
				c-0.66,0.82-0.47,1.99-0.23,2.57C425.77,634.97,428.46,635.92,431.77,635.61z"/>
			<path class="st4" d="M432.82,647.56c-3.84-0.57-7.01,0.35-7.9,2.31c-0.05,0.12-0.73,1.65,0.03,2.87
				c0.65,1.05,2.02,1.31,2.76,1.28C429.83,653.94,431.91,651.34,432.82,647.56z"/>
			<path class="st4" d="M457.99,636.14c-1.25,2.13-2.68,4.15-4.28,6.03c-1.01-0.31-2.07-0.77-3.14-1.38
				C452.87,637.45,455.82,635.64,457.99,636.14z"/>
		</g>
		<path class="st34" d="M412.17,580.54c-2.94,2.08-3.12,6.54-2.4,9.2c1.44,5.33,8.06,9.23,16.54,9.39
			c1.66-8.13-0.44-15.37-5.25-18.17C418.99,579.75,415,578.54,412.17,580.54z"/>
		<path class="st34" d="M387.12,591.33c-0.93,2.66,1.26,5.79,3.12,7.31c3.74,3.04,10.27,2.9,16.14-0.59
			c-3.07-6.26-8.24-10.32-12.97-10.2C391.37,587.89,388.02,588.76,387.12,591.33z"/>
		<path class="st35" d="M160.6,616.04c-8.59,1.09-16.83-1.24-23.35-5.9v-15.35c1.52-1.33,3.04-2.66,4.56-3.99c0,0,0.01,0,0.01-0.01
			c0.85-1.31,1.76-2.57,2.74-3.78c0.88-1.11,1.82-2.16,2.81-3.17c0.12-0.13,0.24-0.25,0.36-0.37c0.11-0.11,0.22-0.22,0.34-0.33
			c1.87-1.83,3.9-3.5,6.07-4.97c0.38-0.26,0.76-0.51,1.14-0.75c2.55-1.62,5.28-2.98,8.15-4.05c1.47-0.54,2.97-1.01,4.51-1.39h0.01
			c0.48-0.29,0.98-0.45,1.48-0.47c0.14-0.01,0.3,0,0.48,0.02h0.01c2.76-0.56,5.62-0.85,8.55-0.85h2.01
			c-0.1-0.26-0.19-0.51-0.29-0.76h6.11c0.12,0.25,0.23,0.5,0.33,0.76c0.06,0.12,0.12,0.24,0.16,0.37c1.11,2.63,1.89,5.46,2.27,8.43
			C191.34,597.39,178.6,613.76,160.6,616.04z"/>
		<path class="st36" d="M162.11,587.12c2.37,6.49,4.75,12.98,7.12,19.47c1.9-0.7,5.59-2.37,8.73-6.08
			c4.67-5.53,4.87-11.79,4.86-13.62C175.91,586.96,169.01,587.04,162.11,587.12z"/>
		<path class="st36" d="M182.24,577.64c-6.56,0.69-13.11,1.39-19.66,2.08c0.27-2,0.53-4,0.8-6c0.02-0.11,0.03-0.23,0.05-0.35
			c1.47-0.54,2.97-1.01,4.51-1.39h0.01c0.48-0.29,0.98-0.45,1.48-0.47c0.14-0.01,0.3,0,0.48,0.02h0.01
			c2.76-0.56,5.62-0.85,8.55-0.85h2.01c0.04,0.13,0.09,0.25,0.13,0.38c0.25,0.7,0.48,1.45,0.7,2.24
			C181.74,574.87,182.04,576.34,182.24,577.64z"/>
		<path class="st36" d="M154.68,590.19c-5.11,4.76-10.23,9.51-15.34,14.27c1.6,1.41,4.92,3.96,9.89,5.25
			c5.23,1.35,9.58,0.6,11.68,0.1C158.84,603.27,156.76,596.73,154.68,590.19z"/>
		<path class="st36" d="M154.14,578.17c0.38-0.26,0.76-0.51,1.14-0.75c-0.03,0.17-0.06,0.35-0.1,0.52
			c-0.04,0.25-0.09,0.49-0.13,0.74c-0.18-0.1-0.36-0.2-0.54-0.3C154.39,578.31,154.26,578.24,154.14,578.17z"/>
		<path class="st36" d="M149.73,583.88c-2.45,2.14-4.89,4.27-7.33,6.4l-0.01,0.01c-0.19,0.17-0.38,0.34-0.57,0.5
			c0.85-1.31,1.76-2.57,2.74-3.78c0.88-1.11,1.82-2.16,2.81-3.17c0.12-0.13,0.24-0.25,0.36-0.37c0.11-0.11,0.22-0.22,0.34-0.33
			c0.11,0.05,0.21,0.1,0.32,0.14C148.84,583.48,149.28,583.68,149.73,583.88z"/>
		<path class="st33" d="M158.48,575.81"/>
		<path class="st37" d="M154.43,593.57c-3.51,1.35-5.75,3.62-5.58,5.68c0.01,0.12,0.17,1.72,1.39,2.37
			c1.05,0.57,2.33,0.13,2.94-0.25C154.93,600.3,155.45,597.16,154.43,593.57z"/>
		<path class="st37" d="M164.88,588.75c0.58,2.81,2.04,4.79,3.65,4.94c0.1,0.01,1.35,0.11,2.02-0.72c0.58-0.71,0.4-1.72,0.2-2.23
			C170.14,589.28,167.78,588.47,164.88,588.75z"/>
		<path class="st37" d="M172.15,575.47c-0.86,1.88-3.94,2.77-7.66,2.24c0.59-2.46,1.7-4.39,2.99-5.41c0.15-0.12,0.31-0.22,0.46-0.32
			h0.01c0.48-0.29,0.98-0.45,1.48-0.47c0.14-0.01,0.3,0,0.48,0.02h0.01c0.11,0.01,0.22,0.03,0.33,0.06
			c0.66,0.12,1.42,0.45,1.86,1.14C172.85,573.89,172.2,575.36,172.15,575.47z"/>
		<path class="st37" d="M147.75,584.03c-0.76,1.08-1.63,1.95-2.48,2.54c-0.01,0-0.01,0.01-0.02,0.01c-0.01,0.02-0.01,0.02-0.02,0.02
			c-0.23,0.16-0.45,0.3-0.67,0.41c0.88-1.11,1.82-2.16,2.81-3.17c0.1,0.04,0.2,0.09,0.3,0.15C147.7,584,147.72,584.02,147.75,584.03
			z"/>
		
			<ellipse transform="matrix(0.9962 -0.087 0.087 0.9962 -54.5074 17.4888)" class="st38" cx="173.38" cy="634.06" rx="10.44" ry="9.41"/>
		<ellipse class="st38" cx="210.43" cy="637.08" rx="7.92" ry="7.18"/>
		<polygon class="st39" points="177.78,629.01 175.91,631.48 177.26,634.25 173.91,633.43 171.29,635.32 171.09,632.35 
			168.13,630.75 171.35,629.73 172.14,626.85 174.33,629.19 		"/>
		<polygon class="st39" points="210.54,630.79 210.65,633.16 212.78,634.19 210.42,635.27 209.81,637.64 208.25,635.95 
			205.74,636.37 207.13,634.24 206.2,632.14 208.62,632.52 		"/>
		<path class="st38" d="M187.08,622.68c0-3.97,3.55-7.18,7.92-7.18c4.38,0,7.92,3.22,7.92,7.18s-3.55,7.18-7.92,7.18
			C190.63,629.86,187.08,626.65,187.08,622.68z"/>
		<polygon class="st39" points="191.26,622.92 192.54,620.93 191.42,618.85 193.96,619.34 195.84,617.77 196.12,620.06 
			198.41,621.17 196.04,622.09 195.57,624.35 193.83,622.63 		"/>
		<path class="st40" d="M463.96,614.21c0,3.61-0.45,7.12-1.29,10.48c-0.4,1.63-0.9,3.21-1.48,4.76c-0.88,2.33-1.95,4.57-3.2,6.69
			c-1.25,2.13-2.68,4.15-4.28,6.03c-0.29,0.35-0.59,0.7-0.9,1.05c-0.53,0.59-1.08,1.17-1.64,1.73c-1.49,1.49-3.09,2.88-4.78,4.14
			c-1.22,0.91-2.48,1.76-3.79,2.54h-0.01c-3.05,1.82-6.33,3.27-9.79,4.3c-1.16,0.35-2.3,0.65-3.5,0.9h-0.03
			c-0.37,0.08-0.75,0.15-1.13,0.22h-0.09c-2.47,0.45-5.02,0.69-7.62,0.69H178.47c-23.94,0-43.53-19.59-43.53-43.53
			c0-4.87,0.81-9.57,2.31-13.95c1.14-3.35,2.68-6.52,4.56-9.46c0,0,0.01,0,0.01-0.01c0.85-1.31,1.76-2.57,2.74-3.78
			c0.88-1.11,1.82-2.16,2.81-3.17c0.12-0.13,0.24-0.25,0.36-0.37c0.11-0.11,0.22-0.22,0.34-0.33c1.87-1.83,3.9-3.5,6.07-4.97
			c0.38-0.26,0.76-0.51,1.14-0.75c2.55-1.62,5.28-2.98,8.15-4.05c1.47-0.54,2.97-1.01,4.51-1.39h0.01c0.64-0.17,1.3-0.32,1.96-0.45
			h0.01c2.76-0.56,5.62-0.85,8.55-0.85h241.96C444.37,570.68,463.96,590.27,463.96,614.21z"/>
		<text transform="matrix(1 0 0 1 210.427 629.8639)" class="st26 st14 st17">FOLLOW</text>
	</g>
</g>
<g id="what_is_manji_x3F_" class="st0">
	<g class="st1">
		<defs>
			<rect id="SVGID_00000109747868443937163450000008736087871933031056_" x="21.55" y="719.65" width="598.03" height="122.78"/>
		</defs>
		<clipPath id="SVGID_00000114785875842163868530000002585928227857511830_">
			<use xlink:href="#SVGID_00000109747868443937163450000008736087871933031056_"  style="overflow:visible;"/>
		</clipPath>
		<path style="clip-path:url(#SVGID_00000114785875842163868530000002585928227857511830_);fill:#FCE7B8;" d="M82.94,723.74
			c-31.65,0-57.3,25.65-57.3,57.3s25.65,57.3,57.3,57.3h447.47c31.65,0,57.3-25.65,57.3-57.3s-25.65-57.3-57.3-57.3H82.94z"/>
		
			<path style="clip-path:url(#SVGID_00000114785875842163868530000002585928227857511830_);fill:none;stroke:#DC6C64;stroke-width:8.1855;" d="
			M82.94,723.74c-31.65,0-57.3,25.65-57.3,57.3s25.65,57.3,57.3,57.3h447.47c31.65,0,57.3-25.65,57.3-57.3s-25.65-57.3-57.3-57.3
			H82.94z"/>
	</g>
	<text transform="matrix(1 0 0 1 66.6378 801.3407)" class="st1"><tspan x="0" y="0" class="st43 st14 st44">W</tspan><tspan x="62.31" y="0" class="st43 st14 st44">H</tspan><tspan x="104.7" y="0" class="st43 st14 st44 st45">A</tspan><tspan x="141.47" y="0" class="st43 st14 st44">T </tspan><tspan x="194.44" y="0" class="st43 st14 st44">I</tspan><tspan x="212.64" y="0" class="st43 st14 st44">S </tspan><tspan x="266.14" y="0" class="st43 st14 st44">M</tspan><tspan x="316.98" y="0" class="st43 st14 st44">A</tspan><tspan x="358.13" y="0" class="st43 st14 st44 st46">N</tspan><tspan x="397.38" y="0" class="st43 st14 st44">J</tspan><tspan x="426.47" y="0" class="st43 st14 st44 st27">I</tspan><tspan x="443.79" y="0" class="st43 st14 st44">?</tspan></text>
</g>
</svg>
